M48
;GenerationSoftware,Autodesk,EAGLE,8.6.3*%
;CreationDate,2023-08-17T09:40:20Z*%
FMAT,2
ICI,OFF
METRIC,TZ,000.000
T10C0.200
T9C0.305
T8C0.350
T7C0.406
T6C0.600
T5C0.800
T4C0.813
T3C0.889
T2C0.900
T1C1.016
%
G90
M71
T1
X3708Y37846
X3708Y35306
X1168Y37846
X-3912Y35306
X1168Y35306
X-1372Y37846
X-1372Y35306
X-3912Y37846
T2
X53594Y31115
X51054Y31115
X48514Y31115
X-914Y22327
X-914Y19787
X-914Y24867
T3
X22300Y2000
X24840Y38000
X27380Y38000
X29920Y38000
X45160Y38000
X42545Y6477
X40005Y6477
X37465Y6477
X24840Y2000
X27380Y2000
X29920Y2000
X32460Y2000
X35000Y2000
X37540Y2000
X42620Y2000
X45160Y2000
X47700Y2000
X32460Y38000
X35000Y38000
X40080Y2000
X47700Y38000
X40080Y38000
X42620Y38000
X22300Y38000
X37540Y38000
X19202Y1981
X16662Y1981
X14122Y1981
X11582Y1981
X34925Y6477
T4
X12700Y38862
X7620Y38862
X12700Y35814
X7620Y35814
X10160Y38862
X10160Y35814
T5
X-4420Y28820
X5807Y6045
X7807Y6045
X-4420Y22470
X-4420Y30820
X-4420Y24470
T6
X48844Y5893
X48844Y7163
X50114Y5893
X50114Y7163
X51384Y5893
X51384Y7163
X52654Y5893
X53924Y5893
X53924Y7163
X52654Y7163
T7
X52832Y24511
X46609Y9398
X29439Y30505
X21717Y22352
X22225Y24257
X32944Y32741
X-8738Y27026
X51943Y22225
X-8738Y28677
X53467Y22098
X-8738Y26264
X-8738Y27788
X-9500Y21565
X-8738Y21565
X-7823Y34722
X-7264Y39776
X-9627Y22835
X53594Y24638
X-8865Y22835
X41751Y16002
X47498Y9398
X45339Y6350
X42926Y3556
X40386Y3556
X37973Y3556
X53721Y4318
X47142Y4750
X26238Y37211
X36830Y35941
X33782Y39243
X35331Y39370
X37846Y18955
X38989Y15970
X39973Y26511
X35909Y24257
X32194Y17844
X28981Y10363
X52502Y8814
X48539Y9271
X45244Y18860
X40481Y18860
X35909Y15970
X42926Y18891
X41148Y24289
X42450Y26511
X31528Y26067
X34798Y19844
X53467Y32893
X52578Y32893
X46609Y31369
X46863Y32258
X18796Y33020
X46736Y34671
X50673Y889
X-8738Y29566
X12497Y27203
X18796Y33909
X-8992Y35916
X-9881Y34773
X-9881Y35789
X-8230Y35535
X-8992Y35027
X31115Y39192
X33719Y27527
X35846Y27495
X44323Y16034
X32321Y22701
X52070Y24511
T8
X16510Y32893
X-6960Y32690
X8255Y27203
X2311Y28931
X1829Y33655
X2616Y25603
X648Y5829
X5592Y20422
X11100Y26086
X20168Y38913
X492Y11416
X-292Y16097
X12243Y8735
X16278Y6966
X20549Y9560
X18034Y7976
X14414Y25273
X1854Y20082
X14732Y29718
X8096Y29337
X10897Y31242
X-3912Y19736
X23749Y36246
X14884Y34900
X-1473Y6804
X-2581Y12370
X6534Y32798
X23749Y35357
X5651Y23451
X52349Y30277
X54305Y20726
X1321Y24384
X-457Y18117
X-2492Y5080
X902Y8440
X24765Y16129
X25389Y11673
X12286Y12040
X15799Y12421
X24784Y9684
X2438Y23952
X2864Y18466
X31293Y31852
X22530Y28143
X25298Y30861
X13716Y26391
X7569Y25130
X4394Y23978
X3937Y2632
X6071Y2632
X-1301Y14091
X883Y13703
X24892Y13938
X2174Y13223
X34109Y18212
X20904Y6289
X27769Y4651
X5648Y8779
X4648Y8303
X9652Y6134
X20828Y20701
X24150Y11359
X4267Y9042
X24003Y4085
X-4953Y10465
X3123Y9862
X4064Y5131
X2597Y11862
X22704Y6071
X26723Y9782
X23393Y12443
X22911Y16888
X19778Y14324
X13665Y12802
X16408Y13386
X33045Y5715
X16224Y3943
X7255Y8124
X30912Y33122
X21057Y12878
X21884Y14678
X6083Y7976
X21946Y12802
X6401Y9168
X21666Y5890
X-1397Y18047
X-2489Y15621
X-1467Y16967
X15380Y23698
X11271Y19742
X30276Y7750
X26899Y7798
X16449Y14821
X19320Y11588
X14148Y13614
X15316Y13665
X15596Y15268
X17043Y9071
X14986Y11138
X13640Y14520
X17475Y13995
X46380Y699
X44856Y8992
X28016Y8484
X11182Y10418
X24080Y6421
X12903Y11377
X10808Y17050
X11767Y18872
X45745Y13894
X30124Y21031
X4509Y17951
X-1422Y28931
X-76Y28804
X6528Y28905
X27305Y17145
X16256Y33909
X24054Y27635
X17859Y23676
X753Y15840
X7722Y2632
X18558Y10070
X21260Y8519
X15164Y17097
X-6292Y12040
X7937Y24102
X7849Y21692
X15621Y27740
X20396Y22990
X11608Y23176
X9462Y24372
X4547Y21466
X11493Y6064
X13856Y6083
X22682Y8890
X22835Y7233
X16904Y11443
X635Y4572
X-9129Y15189
X8179Y25997
X5625Y11334
X17882Y9147
T9
X43815Y27940
X-8890Y18847
X21463Y15367
X45974Y17018
X29362Y11100
X30861Y28067
X41859Y36220
X31877Y27940
X19558Y22860
X16154Y16942
X35217Y31750
X13811Y8735
X21590Y16256
X49657Y14986
X43815Y9144
X45593Y26543
X43688Y22987
X44450Y20447
X45466Y21717
T10
X6706Y15545
X5626Y15265
X11580Y15919
X6477Y17805
X26695Y17043
X21996Y16967
X19329Y16383
X20091Y16002
X20117Y18440
X-10312Y29235
X-6528Y1392
X19914Y16916
X30328Y12700
X26213Y11481
X-419Y10846
X9169Y12268
X8992Y13208
X9354Y15596
X-838Y5029
X-4877Y11481
X-2972Y14656
X-9957Y4445
X-8052Y6198
X-7671Y4470
X-8966Y4953
X-8052Y5105
X24206Y12954
M30