G04 EAGLE Gerber X2 export*
%TF.Part,Single*%
%TF.FileFunction,Soldermask,Bot,1*%
%TF.FilePolarity,Negative*%
%TF.GenerationSoftware,Autodesk,EAGLE,8.6.3*%
%TF.CreationDate,2023-08-17T09:40:23Z*%
G75*
%MOMM*%
%FSLAX34Y34*%
%LPD*%
%AMOC8*
5,1,8,0,0,1.08239X$1,22.5*%
G01*
%ADD10R,1.752600X1.752600*%
%ADD11C,1.752600*%
%ADD12R,0.601600X0.601600*%
%ADD13R,0.501600X0.601600*%
%ADD14R,2.711600X1.661600*%
%ADD15R,1.601600X1.001600*%
%ADD16R,1.409600X1.409600*%
%ADD17C,1.409600*%
%ADD18R,0.901600X2.109600*%
%ADD19R,1.551600X2.101600*%
%ADD20P,1.539592X8X292.500000*%
%ADD21C,1.422400*%
%ADD22C,0.247650*%
%ADD23P,1.759533X8X22.500000*%
%ADD24C,0.701600*%
%ADD25R,1.209600X1.209600*%
%ADD26C,1.209600*%


D10*
X477000Y380000D03*
D11*
X451600Y380000D03*
X426200Y380000D03*
X400800Y380000D03*
X375400Y380000D03*
X350000Y380000D03*
X324600Y380000D03*
X299200Y380000D03*
X273800Y380000D03*
X248400Y380000D03*
X223000Y380000D03*
D12*
X341750Y229980D03*
D13*
X349250Y229980D03*
D12*
X356750Y229980D03*
X356750Y211980D03*
D13*
X349250Y211980D03*
D12*
X341750Y211980D03*
D14*
X400900Y287400D03*
X526900Y287400D03*
X526900Y118400D03*
X400900Y118400D03*
D15*
X376900Y267100D03*
X376900Y254400D03*
X376900Y241700D03*
X376900Y229000D03*
X376900Y216300D03*
X376900Y203600D03*
D16*
X-44196Y308196D03*
D17*
X-44196Y288196D03*
D16*
X-44196Y244696D03*
D17*
X-44196Y224696D03*
D18*
X215286Y185040D03*
X226286Y185040D03*
X237286Y185040D03*
X248286Y185040D03*
X259286Y185040D03*
X270286Y185040D03*
X281286Y185040D03*
X292286Y185040D03*
D19*
X177250Y161580D03*
X317290Y161580D03*
X177250Y243564D03*
X317290Y243564D03*
D10*
X477000Y20000D03*
D11*
X451600Y20000D03*
X426200Y20000D03*
X400800Y20000D03*
X375400Y20000D03*
X350000Y20000D03*
X324600Y20000D03*
X299200Y20000D03*
X273800Y20000D03*
X248400Y20000D03*
X223000Y20000D03*
X349250Y64770D03*
X374650Y64770D03*
X400050Y64770D03*
X425450Y64770D03*
X485140Y311150D03*
X510540Y311150D03*
X535940Y311150D03*
D20*
X101600Y388620D03*
X101600Y358140D03*
D21*
X127000Y388620D03*
X76200Y388620D03*
X76200Y358140D03*
X127000Y358140D03*
D22*
X-96171Y181261D02*
X-96171Y173831D01*
X-96171Y181261D02*
X-88741Y181261D01*
X-88741Y173831D01*
X-96171Y173831D01*
X-96171Y176307D02*
X-88741Y176307D01*
X-88741Y178783D02*
X-96171Y178783D01*
X-96171Y181259D02*
X-88741Y181259D01*
X-96171Y166021D02*
X-96171Y158591D01*
X-96171Y166021D02*
X-88741Y166021D01*
X-88741Y158591D01*
X-96171Y158591D01*
X-96171Y161067D02*
X-88741Y161067D01*
X-88741Y163543D02*
X-96171Y163543D01*
X-96171Y166019D02*
X-88741Y166019D01*
D23*
X-39116Y353060D03*
X-39116Y378460D03*
X-13716Y353060D03*
X-13716Y378460D03*
X11684Y353060D03*
X11684Y378460D03*
X37084Y353060D03*
X37084Y378460D03*
D24*
X22458Y83566D02*
X12458Y83566D01*
X12458Y70866D02*
X22458Y70866D01*
X22458Y58166D02*
X12458Y58166D01*
X12458Y45466D02*
X22458Y45466D01*
X-49542Y45466D02*
X-59542Y45466D01*
X-59542Y58166D02*
X-49542Y58166D01*
X-49542Y70866D02*
X-59542Y70866D01*
X-59542Y83566D02*
X-49542Y83566D01*
D16*
X58072Y60452D03*
D17*
X78072Y60452D03*
D25*
X488442Y58928D03*
D26*
X488442Y71628D03*
X501142Y58928D03*
X501142Y71628D03*
X513842Y58928D03*
X513842Y71628D03*
X526542Y58928D03*
X526542Y71628D03*
X539242Y58928D03*
X539242Y71628D03*
D11*
X192024Y19812D03*
X166624Y19812D03*
X141224Y19812D03*
X115824Y19812D03*
X-9144Y248666D03*
X-9144Y223266D03*
X-9144Y197866D03*
M02*
