G04 EAGLE Gerber X2 export*
%TF.Part,Single*%
%TF.FileFunction,Legend,Bot,1*%
%TF.FilePolarity,Positive*%
%TF.GenerationSoftware,Autodesk,EAGLE,8.6.3*%
%TF.CreationDate,2023-08-23T14:46:16Z*%
G75*
%MOMM*%
%FSLAX34Y34*%
%LPD*%
%AMOC8*
5,1,8,0,0,1.08239X$1,22.5*%
G01*
%ADD10C,0.203200*%
%ADD11C,0.279400*%
%ADD12C,0.254000*%
%ADD13C,0.381000*%
%ADD14R,2.667000X2.540000*%
%ADD15C,0.228600*%
%ADD16C,0.152400*%
%ADD17C,0.127000*%
%ADD18C,0.200000*%


D10*
X514760Y20000D02*
X514765Y20374D01*
X514778Y20748D01*
X514801Y21121D01*
X514833Y21494D01*
X514875Y21866D01*
X514925Y22236D01*
X514984Y22605D01*
X515053Y22973D01*
X515130Y23339D01*
X515217Y23703D01*
X515312Y24065D01*
X515416Y24424D01*
X515529Y24781D01*
X515651Y25134D01*
X515781Y25485D01*
X515920Y25832D01*
X516067Y26176D01*
X516223Y26516D01*
X516387Y26852D01*
X516560Y27184D01*
X516740Y27512D01*
X516928Y27835D01*
X517124Y28153D01*
X517328Y28467D01*
X517540Y28775D01*
X517759Y29078D01*
X517986Y29376D01*
X518219Y29668D01*
X518460Y29954D01*
X518708Y30235D01*
X518962Y30509D01*
X519224Y30776D01*
X519491Y31038D01*
X519765Y31292D01*
X520046Y31540D01*
X520332Y31781D01*
X520624Y32014D01*
X520922Y32241D01*
X521225Y32460D01*
X521533Y32672D01*
X521847Y32876D01*
X522165Y33072D01*
X522488Y33260D01*
X522816Y33440D01*
X523148Y33613D01*
X523484Y33777D01*
X523824Y33933D01*
X524168Y34080D01*
X524515Y34219D01*
X524866Y34349D01*
X525219Y34471D01*
X525576Y34584D01*
X525935Y34688D01*
X526297Y34783D01*
X526661Y34870D01*
X527027Y34947D01*
X527395Y35016D01*
X527764Y35075D01*
X528134Y35125D01*
X528506Y35167D01*
X528879Y35199D01*
X529252Y35222D01*
X529626Y35235D01*
X530000Y35240D01*
X530374Y35235D01*
X530748Y35222D01*
X531121Y35199D01*
X531494Y35167D01*
X531866Y35125D01*
X532236Y35075D01*
X532605Y35016D01*
X532973Y34947D01*
X533339Y34870D01*
X533703Y34783D01*
X534065Y34688D01*
X534424Y34584D01*
X534781Y34471D01*
X535134Y34349D01*
X535485Y34219D01*
X535832Y34080D01*
X536176Y33933D01*
X536516Y33777D01*
X536852Y33613D01*
X537184Y33440D01*
X537512Y33260D01*
X537835Y33072D01*
X538153Y32876D01*
X538467Y32672D01*
X538775Y32460D01*
X539078Y32241D01*
X539376Y32014D01*
X539668Y31781D01*
X539954Y31540D01*
X540235Y31292D01*
X540509Y31038D01*
X540776Y30776D01*
X541038Y30509D01*
X541292Y30235D01*
X541540Y29954D01*
X541781Y29668D01*
X542014Y29376D01*
X542241Y29078D01*
X542460Y28775D01*
X542672Y28467D01*
X542876Y28153D01*
X543072Y27835D01*
X543260Y27512D01*
X543440Y27184D01*
X543613Y26852D01*
X543777Y26516D01*
X543933Y26176D01*
X544080Y25832D01*
X544219Y25485D01*
X544349Y25134D01*
X544471Y24781D01*
X544584Y24424D01*
X544688Y24065D01*
X544783Y23703D01*
X544870Y23339D01*
X544947Y22973D01*
X545016Y22605D01*
X545075Y22236D01*
X545125Y21866D01*
X545167Y21494D01*
X545199Y21121D01*
X545222Y20748D01*
X545235Y20374D01*
X545240Y20000D01*
X545235Y19626D01*
X545222Y19252D01*
X545199Y18879D01*
X545167Y18506D01*
X545125Y18134D01*
X545075Y17764D01*
X545016Y17395D01*
X544947Y17027D01*
X544870Y16661D01*
X544783Y16297D01*
X544688Y15935D01*
X544584Y15576D01*
X544471Y15219D01*
X544349Y14866D01*
X544219Y14515D01*
X544080Y14168D01*
X543933Y13824D01*
X543777Y13484D01*
X543613Y13148D01*
X543440Y12816D01*
X543260Y12488D01*
X543072Y12165D01*
X542876Y11847D01*
X542672Y11533D01*
X542460Y11225D01*
X542241Y10922D01*
X542014Y10624D01*
X541781Y10332D01*
X541540Y10046D01*
X541292Y9765D01*
X541038Y9491D01*
X540776Y9224D01*
X540509Y8962D01*
X540235Y8708D01*
X539954Y8460D01*
X539668Y8219D01*
X539376Y7986D01*
X539078Y7759D01*
X538775Y7540D01*
X538467Y7328D01*
X538153Y7124D01*
X537835Y6928D01*
X537512Y6740D01*
X537184Y6560D01*
X536852Y6387D01*
X536516Y6223D01*
X536176Y6067D01*
X535832Y5920D01*
X535485Y5781D01*
X535134Y5651D01*
X534781Y5529D01*
X534424Y5416D01*
X534065Y5312D01*
X533703Y5217D01*
X533339Y5130D01*
X532973Y5053D01*
X532605Y4984D01*
X532236Y4925D01*
X531866Y4875D01*
X531494Y4833D01*
X531121Y4801D01*
X530748Y4778D01*
X530374Y4765D01*
X530000Y4760D01*
X529626Y4765D01*
X529252Y4778D01*
X528879Y4801D01*
X528506Y4833D01*
X528134Y4875D01*
X527764Y4925D01*
X527395Y4984D01*
X527027Y5053D01*
X526661Y5130D01*
X526297Y5217D01*
X525935Y5312D01*
X525576Y5416D01*
X525219Y5529D01*
X524866Y5651D01*
X524515Y5781D01*
X524168Y5920D01*
X523824Y6067D01*
X523484Y6223D01*
X523148Y6387D01*
X522816Y6560D01*
X522488Y6740D01*
X522165Y6928D01*
X521847Y7124D01*
X521533Y7328D01*
X521225Y7540D01*
X520922Y7759D01*
X520624Y7986D01*
X520332Y8219D01*
X520046Y8460D01*
X519765Y8708D01*
X519491Y8962D01*
X519224Y9224D01*
X518962Y9491D01*
X518708Y9765D01*
X518460Y10046D01*
X518219Y10332D01*
X517986Y10624D01*
X517759Y10922D01*
X517540Y11225D01*
X517328Y11533D01*
X517124Y11847D01*
X516928Y12165D01*
X516740Y12488D01*
X516560Y12816D01*
X516387Y13148D01*
X516223Y13484D01*
X516067Y13824D01*
X515920Y14168D01*
X515781Y14515D01*
X515651Y14866D01*
X515529Y15219D01*
X515416Y15576D01*
X515312Y15935D01*
X515217Y16297D01*
X515130Y16661D01*
X515053Y17027D01*
X514984Y17395D01*
X514925Y17764D01*
X514875Y18134D01*
X514833Y18506D01*
X514801Y18879D01*
X514778Y19252D01*
X514765Y19626D01*
X514760Y20000D01*
X514760Y380000D02*
X514765Y380374D01*
X514778Y380748D01*
X514801Y381121D01*
X514833Y381494D01*
X514875Y381866D01*
X514925Y382236D01*
X514984Y382605D01*
X515053Y382973D01*
X515130Y383339D01*
X515217Y383703D01*
X515312Y384065D01*
X515416Y384424D01*
X515529Y384781D01*
X515651Y385134D01*
X515781Y385485D01*
X515920Y385832D01*
X516067Y386176D01*
X516223Y386516D01*
X516387Y386852D01*
X516560Y387184D01*
X516740Y387512D01*
X516928Y387835D01*
X517124Y388153D01*
X517328Y388467D01*
X517540Y388775D01*
X517759Y389078D01*
X517986Y389376D01*
X518219Y389668D01*
X518460Y389954D01*
X518708Y390235D01*
X518962Y390509D01*
X519224Y390776D01*
X519491Y391038D01*
X519765Y391292D01*
X520046Y391540D01*
X520332Y391781D01*
X520624Y392014D01*
X520922Y392241D01*
X521225Y392460D01*
X521533Y392672D01*
X521847Y392876D01*
X522165Y393072D01*
X522488Y393260D01*
X522816Y393440D01*
X523148Y393613D01*
X523484Y393777D01*
X523824Y393933D01*
X524168Y394080D01*
X524515Y394219D01*
X524866Y394349D01*
X525219Y394471D01*
X525576Y394584D01*
X525935Y394688D01*
X526297Y394783D01*
X526661Y394870D01*
X527027Y394947D01*
X527395Y395016D01*
X527764Y395075D01*
X528134Y395125D01*
X528506Y395167D01*
X528879Y395199D01*
X529252Y395222D01*
X529626Y395235D01*
X530000Y395240D01*
X530374Y395235D01*
X530748Y395222D01*
X531121Y395199D01*
X531494Y395167D01*
X531866Y395125D01*
X532236Y395075D01*
X532605Y395016D01*
X532973Y394947D01*
X533339Y394870D01*
X533703Y394783D01*
X534065Y394688D01*
X534424Y394584D01*
X534781Y394471D01*
X535134Y394349D01*
X535485Y394219D01*
X535832Y394080D01*
X536176Y393933D01*
X536516Y393777D01*
X536852Y393613D01*
X537184Y393440D01*
X537512Y393260D01*
X537835Y393072D01*
X538153Y392876D01*
X538467Y392672D01*
X538775Y392460D01*
X539078Y392241D01*
X539376Y392014D01*
X539668Y391781D01*
X539954Y391540D01*
X540235Y391292D01*
X540509Y391038D01*
X540776Y390776D01*
X541038Y390509D01*
X541292Y390235D01*
X541540Y389954D01*
X541781Y389668D01*
X542014Y389376D01*
X542241Y389078D01*
X542460Y388775D01*
X542672Y388467D01*
X542876Y388153D01*
X543072Y387835D01*
X543260Y387512D01*
X543440Y387184D01*
X543613Y386852D01*
X543777Y386516D01*
X543933Y386176D01*
X544080Y385832D01*
X544219Y385485D01*
X544349Y385134D01*
X544471Y384781D01*
X544584Y384424D01*
X544688Y384065D01*
X544783Y383703D01*
X544870Y383339D01*
X544947Y382973D01*
X545016Y382605D01*
X545075Y382236D01*
X545125Y381866D01*
X545167Y381494D01*
X545199Y381121D01*
X545222Y380748D01*
X545235Y380374D01*
X545240Y380000D01*
X545235Y379626D01*
X545222Y379252D01*
X545199Y378879D01*
X545167Y378506D01*
X545125Y378134D01*
X545075Y377764D01*
X545016Y377395D01*
X544947Y377027D01*
X544870Y376661D01*
X544783Y376297D01*
X544688Y375935D01*
X544584Y375576D01*
X544471Y375219D01*
X544349Y374866D01*
X544219Y374515D01*
X544080Y374168D01*
X543933Y373824D01*
X543777Y373484D01*
X543613Y373148D01*
X543440Y372816D01*
X543260Y372488D01*
X543072Y372165D01*
X542876Y371847D01*
X542672Y371533D01*
X542460Y371225D01*
X542241Y370922D01*
X542014Y370624D01*
X541781Y370332D01*
X541540Y370046D01*
X541292Y369765D01*
X541038Y369491D01*
X540776Y369224D01*
X540509Y368962D01*
X540235Y368708D01*
X539954Y368460D01*
X539668Y368219D01*
X539376Y367986D01*
X539078Y367759D01*
X538775Y367540D01*
X538467Y367328D01*
X538153Y367124D01*
X537835Y366928D01*
X537512Y366740D01*
X537184Y366560D01*
X536852Y366387D01*
X536516Y366223D01*
X536176Y366067D01*
X535832Y365920D01*
X535485Y365781D01*
X535134Y365651D01*
X534781Y365529D01*
X534424Y365416D01*
X534065Y365312D01*
X533703Y365217D01*
X533339Y365130D01*
X532973Y365053D01*
X532605Y364984D01*
X532236Y364925D01*
X531866Y364875D01*
X531494Y364833D01*
X531121Y364801D01*
X530748Y364778D01*
X530374Y364765D01*
X530000Y364760D01*
X529626Y364765D01*
X529252Y364778D01*
X528879Y364801D01*
X528506Y364833D01*
X528134Y364875D01*
X527764Y364925D01*
X527395Y364984D01*
X527027Y365053D01*
X526661Y365130D01*
X526297Y365217D01*
X525935Y365312D01*
X525576Y365416D01*
X525219Y365529D01*
X524866Y365651D01*
X524515Y365781D01*
X524168Y365920D01*
X523824Y366067D01*
X523484Y366223D01*
X523148Y366387D01*
X522816Y366560D01*
X522488Y366740D01*
X522165Y366928D01*
X521847Y367124D01*
X521533Y367328D01*
X521225Y367540D01*
X520922Y367759D01*
X520624Y367986D01*
X520332Y368219D01*
X520046Y368460D01*
X519765Y368708D01*
X519491Y368962D01*
X519224Y369224D01*
X518962Y369491D01*
X518708Y369765D01*
X518460Y370046D01*
X518219Y370332D01*
X517986Y370624D01*
X517759Y370922D01*
X517540Y371225D01*
X517328Y371533D01*
X517124Y371847D01*
X516928Y372165D01*
X516740Y372488D01*
X516560Y372816D01*
X516387Y373148D01*
X516223Y373484D01*
X516067Y373824D01*
X515920Y374168D01*
X515781Y374515D01*
X515651Y374866D01*
X515529Y375219D01*
X515416Y375576D01*
X515312Y375935D01*
X515217Y376297D01*
X515130Y376661D01*
X515053Y377027D01*
X514984Y377395D01*
X514925Y377764D01*
X514875Y378134D01*
X514833Y378506D01*
X514801Y378879D01*
X514778Y379252D01*
X514765Y379626D01*
X514760Y380000D01*
X-104206Y21016D02*
X-104201Y21390D01*
X-104188Y21764D01*
X-104165Y22137D01*
X-104133Y22510D01*
X-104091Y22882D01*
X-104041Y23252D01*
X-103982Y23621D01*
X-103913Y23989D01*
X-103836Y24355D01*
X-103749Y24719D01*
X-103654Y25081D01*
X-103550Y25440D01*
X-103437Y25797D01*
X-103315Y26150D01*
X-103185Y26501D01*
X-103046Y26848D01*
X-102899Y27192D01*
X-102743Y27532D01*
X-102579Y27868D01*
X-102406Y28200D01*
X-102226Y28528D01*
X-102038Y28851D01*
X-101842Y29169D01*
X-101638Y29483D01*
X-101426Y29791D01*
X-101207Y30094D01*
X-100980Y30392D01*
X-100747Y30684D01*
X-100506Y30970D01*
X-100258Y31251D01*
X-100004Y31525D01*
X-99742Y31792D01*
X-99475Y32054D01*
X-99201Y32308D01*
X-98920Y32556D01*
X-98634Y32797D01*
X-98342Y33030D01*
X-98044Y33257D01*
X-97741Y33476D01*
X-97433Y33688D01*
X-97119Y33892D01*
X-96801Y34088D01*
X-96478Y34276D01*
X-96150Y34456D01*
X-95818Y34629D01*
X-95482Y34793D01*
X-95142Y34949D01*
X-94798Y35096D01*
X-94451Y35235D01*
X-94100Y35365D01*
X-93747Y35487D01*
X-93390Y35600D01*
X-93031Y35704D01*
X-92669Y35799D01*
X-92305Y35886D01*
X-91939Y35963D01*
X-91571Y36032D01*
X-91202Y36091D01*
X-90832Y36141D01*
X-90460Y36183D01*
X-90087Y36215D01*
X-89714Y36238D01*
X-89340Y36251D01*
X-88966Y36256D01*
X-88592Y36251D01*
X-88218Y36238D01*
X-87845Y36215D01*
X-87472Y36183D01*
X-87100Y36141D01*
X-86730Y36091D01*
X-86361Y36032D01*
X-85993Y35963D01*
X-85627Y35886D01*
X-85263Y35799D01*
X-84901Y35704D01*
X-84542Y35600D01*
X-84185Y35487D01*
X-83832Y35365D01*
X-83481Y35235D01*
X-83134Y35096D01*
X-82790Y34949D01*
X-82450Y34793D01*
X-82114Y34629D01*
X-81782Y34456D01*
X-81454Y34276D01*
X-81131Y34088D01*
X-80813Y33892D01*
X-80499Y33688D01*
X-80191Y33476D01*
X-79888Y33257D01*
X-79590Y33030D01*
X-79298Y32797D01*
X-79012Y32556D01*
X-78731Y32308D01*
X-78457Y32054D01*
X-78190Y31792D01*
X-77928Y31525D01*
X-77674Y31251D01*
X-77426Y30970D01*
X-77185Y30684D01*
X-76952Y30392D01*
X-76725Y30094D01*
X-76506Y29791D01*
X-76294Y29483D01*
X-76090Y29169D01*
X-75894Y28851D01*
X-75706Y28528D01*
X-75526Y28200D01*
X-75353Y27868D01*
X-75189Y27532D01*
X-75033Y27192D01*
X-74886Y26848D01*
X-74747Y26501D01*
X-74617Y26150D01*
X-74495Y25797D01*
X-74382Y25440D01*
X-74278Y25081D01*
X-74183Y24719D01*
X-74096Y24355D01*
X-74019Y23989D01*
X-73950Y23621D01*
X-73891Y23252D01*
X-73841Y22882D01*
X-73799Y22510D01*
X-73767Y22137D01*
X-73744Y21764D01*
X-73731Y21390D01*
X-73726Y21016D01*
X-73731Y20642D01*
X-73744Y20268D01*
X-73767Y19895D01*
X-73799Y19522D01*
X-73841Y19150D01*
X-73891Y18780D01*
X-73950Y18411D01*
X-74019Y18043D01*
X-74096Y17677D01*
X-74183Y17313D01*
X-74278Y16951D01*
X-74382Y16592D01*
X-74495Y16235D01*
X-74617Y15882D01*
X-74747Y15531D01*
X-74886Y15184D01*
X-75033Y14840D01*
X-75189Y14500D01*
X-75353Y14164D01*
X-75526Y13832D01*
X-75706Y13504D01*
X-75894Y13181D01*
X-76090Y12863D01*
X-76294Y12549D01*
X-76506Y12241D01*
X-76725Y11938D01*
X-76952Y11640D01*
X-77185Y11348D01*
X-77426Y11062D01*
X-77674Y10781D01*
X-77928Y10507D01*
X-78190Y10240D01*
X-78457Y9978D01*
X-78731Y9724D01*
X-79012Y9476D01*
X-79298Y9235D01*
X-79590Y9002D01*
X-79888Y8775D01*
X-80191Y8556D01*
X-80499Y8344D01*
X-80813Y8140D01*
X-81131Y7944D01*
X-81454Y7756D01*
X-81782Y7576D01*
X-82114Y7403D01*
X-82450Y7239D01*
X-82790Y7083D01*
X-83134Y6936D01*
X-83481Y6797D01*
X-83832Y6667D01*
X-84185Y6545D01*
X-84542Y6432D01*
X-84901Y6328D01*
X-85263Y6233D01*
X-85627Y6146D01*
X-85993Y6069D01*
X-86361Y6000D01*
X-86730Y5941D01*
X-87100Y5891D01*
X-87472Y5849D01*
X-87845Y5817D01*
X-88218Y5794D01*
X-88592Y5781D01*
X-88966Y5776D01*
X-89340Y5781D01*
X-89714Y5794D01*
X-90087Y5817D01*
X-90460Y5849D01*
X-90832Y5891D01*
X-91202Y5941D01*
X-91571Y6000D01*
X-91939Y6069D01*
X-92305Y6146D01*
X-92669Y6233D01*
X-93031Y6328D01*
X-93390Y6432D01*
X-93747Y6545D01*
X-94100Y6667D01*
X-94451Y6797D01*
X-94798Y6936D01*
X-95142Y7083D01*
X-95482Y7239D01*
X-95818Y7403D01*
X-96150Y7576D01*
X-96478Y7756D01*
X-96801Y7944D01*
X-97119Y8140D01*
X-97433Y8344D01*
X-97741Y8556D01*
X-98044Y8775D01*
X-98342Y9002D01*
X-98634Y9235D01*
X-98920Y9476D01*
X-99201Y9724D01*
X-99475Y9978D01*
X-99742Y10240D01*
X-100004Y10507D01*
X-100258Y10781D01*
X-100506Y11062D01*
X-100747Y11348D01*
X-100980Y11640D01*
X-101207Y11938D01*
X-101426Y12241D01*
X-101638Y12549D01*
X-101842Y12863D01*
X-102038Y13181D01*
X-102226Y13504D01*
X-102406Y13832D01*
X-102579Y14164D01*
X-102743Y14500D01*
X-102899Y14840D01*
X-103046Y15184D01*
X-103185Y15531D01*
X-103315Y15882D01*
X-103437Y16235D01*
X-103550Y16592D01*
X-103654Y16951D01*
X-103749Y17313D01*
X-103836Y17677D01*
X-103913Y18043D01*
X-103982Y18411D01*
X-104041Y18780D01*
X-104091Y19150D01*
X-104133Y19522D01*
X-104165Y19895D01*
X-104188Y20268D01*
X-104201Y20642D01*
X-104206Y21016D01*
D11*
X384557Y307467D02*
X384557Y317381D01*
X379600Y317381D01*
X377947Y315729D01*
X377947Y312424D01*
X379600Y310772D01*
X384557Y310772D01*
X372863Y307467D02*
X372863Y314077D01*
X372863Y310772D02*
X369558Y314077D01*
X367906Y314077D01*
X361466Y307467D02*
X358161Y307467D01*
X356508Y309119D01*
X356508Y312424D01*
X358161Y314077D01*
X361466Y314077D01*
X363118Y312424D01*
X363118Y309119D01*
X361466Y307467D01*
X351424Y312424D02*
X344814Y312424D01*
X336425Y307467D02*
X336425Y317381D01*
X333121Y317381D02*
X339730Y317381D01*
X328036Y314077D02*
X328036Y307467D01*
X328036Y310772D02*
X324731Y314077D01*
X323079Y314077D01*
X316639Y314077D02*
X313334Y314077D01*
X311682Y312424D01*
X311682Y307467D01*
X316639Y307467D01*
X318291Y309119D01*
X316639Y310772D01*
X311682Y310772D01*
X304945Y314077D02*
X299988Y314077D01*
X304945Y314077D02*
X306597Y312424D01*
X306597Y309119D01*
X304945Y307467D01*
X299988Y307467D01*
X294903Y307467D02*
X294903Y317381D01*
X294903Y310772D02*
X289946Y307467D01*
X294903Y310772D02*
X289946Y314077D01*
X283506Y307467D02*
X280201Y307467D01*
X283506Y307467D02*
X285158Y309119D01*
X285158Y312424D01*
X283506Y314077D01*
X280201Y314077D01*
X278549Y312424D01*
X278549Y310772D01*
X285158Y310772D01*
X273464Y307467D02*
X273464Y314077D01*
X270160Y314077D02*
X273464Y310772D01*
X270160Y314077D02*
X268507Y314077D01*
X252025Y314077D02*
X248721Y307467D01*
X245416Y314077D01*
X240331Y307467D02*
X233722Y307467D01*
X240331Y307467D02*
X233722Y314077D01*
X233722Y315729D01*
X235374Y317381D01*
X238679Y317381D01*
X240331Y315729D01*
X228637Y309119D02*
X228637Y307467D01*
X228637Y309119D02*
X226985Y309119D01*
X226985Y307467D01*
X228637Y307467D01*
X222790Y317381D02*
X216181Y317381D01*
X222790Y317381D02*
X222790Y312424D01*
X219486Y314077D01*
X217833Y314077D01*
X216181Y312424D01*
X216181Y309119D01*
X217833Y307467D01*
X221138Y307467D01*
X222790Y309119D01*
D10*
X-104206Y381016D02*
X-104201Y381390D01*
X-104188Y381764D01*
X-104165Y382137D01*
X-104133Y382510D01*
X-104091Y382882D01*
X-104041Y383252D01*
X-103982Y383621D01*
X-103913Y383989D01*
X-103836Y384355D01*
X-103749Y384719D01*
X-103654Y385081D01*
X-103550Y385440D01*
X-103437Y385797D01*
X-103315Y386150D01*
X-103185Y386501D01*
X-103046Y386848D01*
X-102899Y387192D01*
X-102743Y387532D01*
X-102579Y387868D01*
X-102406Y388200D01*
X-102226Y388528D01*
X-102038Y388851D01*
X-101842Y389169D01*
X-101638Y389483D01*
X-101426Y389791D01*
X-101207Y390094D01*
X-100980Y390392D01*
X-100747Y390684D01*
X-100506Y390970D01*
X-100258Y391251D01*
X-100004Y391525D01*
X-99742Y391792D01*
X-99475Y392054D01*
X-99201Y392308D01*
X-98920Y392556D01*
X-98634Y392797D01*
X-98342Y393030D01*
X-98044Y393257D01*
X-97741Y393476D01*
X-97433Y393688D01*
X-97119Y393892D01*
X-96801Y394088D01*
X-96478Y394276D01*
X-96150Y394456D01*
X-95818Y394629D01*
X-95482Y394793D01*
X-95142Y394949D01*
X-94798Y395096D01*
X-94451Y395235D01*
X-94100Y395365D01*
X-93747Y395487D01*
X-93390Y395600D01*
X-93031Y395704D01*
X-92669Y395799D01*
X-92305Y395886D01*
X-91939Y395963D01*
X-91571Y396032D01*
X-91202Y396091D01*
X-90832Y396141D01*
X-90460Y396183D01*
X-90087Y396215D01*
X-89714Y396238D01*
X-89340Y396251D01*
X-88966Y396256D01*
X-88592Y396251D01*
X-88218Y396238D01*
X-87845Y396215D01*
X-87472Y396183D01*
X-87100Y396141D01*
X-86730Y396091D01*
X-86361Y396032D01*
X-85993Y395963D01*
X-85627Y395886D01*
X-85263Y395799D01*
X-84901Y395704D01*
X-84542Y395600D01*
X-84185Y395487D01*
X-83832Y395365D01*
X-83481Y395235D01*
X-83134Y395096D01*
X-82790Y394949D01*
X-82450Y394793D01*
X-82114Y394629D01*
X-81782Y394456D01*
X-81454Y394276D01*
X-81131Y394088D01*
X-80813Y393892D01*
X-80499Y393688D01*
X-80191Y393476D01*
X-79888Y393257D01*
X-79590Y393030D01*
X-79298Y392797D01*
X-79012Y392556D01*
X-78731Y392308D01*
X-78457Y392054D01*
X-78190Y391792D01*
X-77928Y391525D01*
X-77674Y391251D01*
X-77426Y390970D01*
X-77185Y390684D01*
X-76952Y390392D01*
X-76725Y390094D01*
X-76506Y389791D01*
X-76294Y389483D01*
X-76090Y389169D01*
X-75894Y388851D01*
X-75706Y388528D01*
X-75526Y388200D01*
X-75353Y387868D01*
X-75189Y387532D01*
X-75033Y387192D01*
X-74886Y386848D01*
X-74747Y386501D01*
X-74617Y386150D01*
X-74495Y385797D01*
X-74382Y385440D01*
X-74278Y385081D01*
X-74183Y384719D01*
X-74096Y384355D01*
X-74019Y383989D01*
X-73950Y383621D01*
X-73891Y383252D01*
X-73841Y382882D01*
X-73799Y382510D01*
X-73767Y382137D01*
X-73744Y381764D01*
X-73731Y381390D01*
X-73726Y381016D01*
X-73731Y380642D01*
X-73744Y380268D01*
X-73767Y379895D01*
X-73799Y379522D01*
X-73841Y379150D01*
X-73891Y378780D01*
X-73950Y378411D01*
X-74019Y378043D01*
X-74096Y377677D01*
X-74183Y377313D01*
X-74278Y376951D01*
X-74382Y376592D01*
X-74495Y376235D01*
X-74617Y375882D01*
X-74747Y375531D01*
X-74886Y375184D01*
X-75033Y374840D01*
X-75189Y374500D01*
X-75353Y374164D01*
X-75526Y373832D01*
X-75706Y373504D01*
X-75894Y373181D01*
X-76090Y372863D01*
X-76294Y372549D01*
X-76506Y372241D01*
X-76725Y371938D01*
X-76952Y371640D01*
X-77185Y371348D01*
X-77426Y371062D01*
X-77674Y370781D01*
X-77928Y370507D01*
X-78190Y370240D01*
X-78457Y369978D01*
X-78731Y369724D01*
X-79012Y369476D01*
X-79298Y369235D01*
X-79590Y369002D01*
X-79888Y368775D01*
X-80191Y368556D01*
X-80499Y368344D01*
X-80813Y368140D01*
X-81131Y367944D01*
X-81454Y367756D01*
X-81782Y367576D01*
X-82114Y367403D01*
X-82450Y367239D01*
X-82790Y367083D01*
X-83134Y366936D01*
X-83481Y366797D01*
X-83832Y366667D01*
X-84185Y366545D01*
X-84542Y366432D01*
X-84901Y366328D01*
X-85263Y366233D01*
X-85627Y366146D01*
X-85993Y366069D01*
X-86361Y366000D01*
X-86730Y365941D01*
X-87100Y365891D01*
X-87472Y365849D01*
X-87845Y365817D01*
X-88218Y365794D01*
X-88592Y365781D01*
X-88966Y365776D01*
X-89340Y365781D01*
X-89714Y365794D01*
X-90087Y365817D01*
X-90460Y365849D01*
X-90832Y365891D01*
X-91202Y365941D01*
X-91571Y366000D01*
X-91939Y366069D01*
X-92305Y366146D01*
X-92669Y366233D01*
X-93031Y366328D01*
X-93390Y366432D01*
X-93747Y366545D01*
X-94100Y366667D01*
X-94451Y366797D01*
X-94798Y366936D01*
X-95142Y367083D01*
X-95482Y367239D01*
X-95818Y367403D01*
X-96150Y367576D01*
X-96478Y367756D01*
X-96801Y367944D01*
X-97119Y368140D01*
X-97433Y368344D01*
X-97741Y368556D01*
X-98044Y368775D01*
X-98342Y369002D01*
X-98634Y369235D01*
X-98920Y369476D01*
X-99201Y369724D01*
X-99475Y369978D01*
X-99742Y370240D01*
X-100004Y370507D01*
X-100258Y370781D01*
X-100506Y371062D01*
X-100747Y371348D01*
X-100980Y371640D01*
X-101207Y371938D01*
X-101426Y372241D01*
X-101638Y372549D01*
X-101842Y372863D01*
X-102038Y373181D01*
X-102226Y373504D01*
X-102406Y373832D01*
X-102579Y374164D01*
X-102743Y374500D01*
X-102899Y374840D01*
X-103046Y375184D01*
X-103185Y375531D01*
X-103315Y375882D01*
X-103437Y376235D01*
X-103550Y376592D01*
X-103654Y376951D01*
X-103749Y377313D01*
X-103836Y377677D01*
X-103913Y378043D01*
X-103982Y378411D01*
X-104041Y378780D01*
X-104091Y379150D01*
X-104133Y379522D01*
X-104165Y379895D01*
X-104188Y380268D01*
X-104201Y380642D01*
X-104206Y381016D01*
D11*
X383541Y300615D02*
X383541Y295657D01*
X381889Y294005D01*
X380236Y295657D01*
X378584Y294005D01*
X376931Y295657D01*
X376931Y300615D01*
X371847Y300615D02*
X371847Y295657D01*
X370195Y294005D01*
X368542Y295657D01*
X366890Y294005D01*
X365237Y295657D01*
X365237Y300615D01*
X360153Y300615D02*
X360153Y295657D01*
X358501Y294005D01*
X356848Y295657D01*
X355196Y294005D01*
X353543Y295657D01*
X353543Y300615D01*
X348459Y295657D02*
X348459Y294005D01*
X348459Y295657D02*
X346807Y295657D01*
X346807Y294005D01*
X348459Y294005D01*
X342612Y290700D02*
X342612Y300615D01*
X337655Y300615D01*
X336003Y298962D01*
X336003Y295657D01*
X337655Y294005D01*
X342612Y294005D01*
X330918Y294005D02*
X330918Y300615D01*
X329266Y300615D01*
X327613Y298962D01*
X327613Y294005D01*
X327613Y298962D02*
X325961Y300615D01*
X324309Y298962D01*
X324309Y294005D01*
X317572Y295657D02*
X317572Y302267D01*
X317572Y295657D02*
X315919Y294005D01*
X315919Y300615D02*
X319224Y300615D01*
X311428Y303919D02*
X309776Y303919D01*
X309776Y294005D01*
X311428Y294005D02*
X308123Y294005D01*
X303632Y294005D02*
X303632Y295657D01*
X301980Y295657D01*
X301980Y294005D01*
X303632Y294005D01*
X297785Y294005D02*
X297785Y300615D01*
X292828Y300615D01*
X291176Y298962D01*
X291176Y294005D01*
X282787Y290700D02*
X281134Y290700D01*
X279482Y292353D01*
X279482Y300615D01*
X284439Y300615D01*
X286091Y298962D01*
X286091Y295657D01*
X284439Y294005D01*
X279482Y294005D01*
D12*
X438240Y115570D02*
X491580Y115570D01*
X438240Y115570D02*
X438240Y76200D01*
X480150Y76200D01*
X491580Y87630D01*
X491580Y115570D01*
D13*
X160745Y280035D02*
X160745Y289356D01*
X156084Y294017D01*
X151424Y289356D01*
X151424Y280035D01*
X151424Y287026D02*
X160745Y287026D01*
X144373Y282365D02*
X142043Y280035D01*
X137382Y280035D01*
X135052Y282365D01*
X135052Y291687D01*
X137382Y294017D01*
X142043Y294017D01*
X144373Y291687D01*
X144373Y289356D01*
X142043Y287026D01*
X135052Y287026D01*
X160745Y258876D02*
X160745Y249555D01*
X160745Y258876D02*
X156084Y263537D01*
X151424Y258876D01*
X151424Y249555D01*
X151424Y256546D02*
X160745Y256546D01*
X144373Y251885D02*
X142043Y249555D01*
X137382Y249555D01*
X135052Y251885D01*
X135052Y261207D01*
X137382Y263537D01*
X142043Y263537D01*
X144373Y261207D01*
X144373Y258876D01*
X142043Y256546D01*
X135052Y256546D01*
X121011Y263537D02*
X118681Y261207D01*
X121011Y263537D02*
X125672Y263537D01*
X128002Y261207D01*
X128002Y251885D01*
X125672Y249555D01*
X121011Y249555D01*
X118681Y251885D01*
X118681Y256546D01*
X123341Y256546D01*
D10*
X113120Y243840D02*
X166460Y243840D01*
X113120Y243840D02*
X86450Y243840D01*
X86450Y269240D01*
X86450Y274320D02*
X86450Y299720D01*
X113120Y299720D01*
X166460Y299720D01*
X166460Y274320D01*
X166460Y269240D02*
X166460Y243840D01*
X166460Y274320D02*
X113120Y274320D01*
X86450Y274320D01*
X113120Y269240D02*
X166460Y269240D01*
X113120Y269240D02*
X86450Y269240D01*
X113120Y269240D02*
X113120Y243840D01*
X113120Y274320D02*
X113120Y299720D01*
D14*
X99785Y287020D03*
X99785Y256540D03*
D11*
X384557Y328549D02*
X384557Y338463D01*
X379600Y338463D01*
X377947Y336811D01*
X377947Y333506D01*
X379600Y331854D01*
X384557Y331854D01*
X372863Y328549D02*
X372863Y335159D01*
X372863Y331854D02*
X369558Y335159D01*
X367906Y335159D01*
X361466Y328549D02*
X358161Y328549D01*
X356508Y330201D01*
X356508Y333506D01*
X358161Y335159D01*
X361466Y335159D01*
X363118Y333506D01*
X363118Y330201D01*
X361466Y328549D01*
X351424Y328549D02*
X351424Y335159D01*
X346467Y335159D01*
X344814Y333506D01*
X344814Y328549D01*
X338078Y330201D02*
X338078Y336811D01*
X338078Y330201D02*
X336425Y328549D01*
X336425Y335159D02*
X339730Y335159D01*
X330282Y328549D02*
X326977Y328549D01*
X325325Y330201D01*
X325325Y333506D01*
X326977Y335159D01*
X330282Y335159D01*
X331934Y333506D01*
X331934Y330201D01*
X330282Y328549D01*
X308546Y328549D02*
X308546Y338463D01*
X305241Y335159D01*
X301937Y338463D01*
X301937Y328549D01*
X296852Y335159D02*
X295200Y335159D01*
X295200Y328549D01*
X296852Y328549D02*
X293547Y328549D01*
X295200Y338463D02*
X295200Y340116D01*
X287404Y335159D02*
X282447Y335159D01*
X287404Y335159D02*
X289056Y333506D01*
X289056Y330201D01*
X287404Y328549D01*
X282447Y328549D01*
X277362Y328549D02*
X277362Y335159D01*
X274058Y335159D02*
X277362Y331854D01*
X274058Y335159D02*
X272405Y335159D01*
X265965Y328549D02*
X262660Y328549D01*
X261008Y330201D01*
X261008Y333506D01*
X262660Y335159D01*
X265965Y335159D01*
X267617Y333506D01*
X267617Y330201D01*
X265965Y328549D01*
X255923Y333506D02*
X249314Y333506D01*
X239272Y338463D02*
X237620Y336811D01*
X239272Y338463D02*
X242577Y338463D01*
X244229Y336811D01*
X244229Y335159D01*
X242577Y333506D01*
X239272Y333506D01*
X237620Y331854D01*
X237620Y330201D01*
X239272Y328549D01*
X242577Y328549D01*
X244229Y330201D01*
X232535Y330201D02*
X232535Y335159D01*
X232535Y330201D02*
X230883Y328549D01*
X225926Y328549D01*
X225926Y326897D02*
X225926Y335159D01*
X225926Y326897D02*
X227578Y325244D01*
X229231Y325244D01*
X220841Y328549D02*
X215884Y328549D01*
X214232Y330201D01*
X215884Y331854D01*
X219189Y331854D01*
X220841Y333506D01*
X219189Y335159D01*
X214232Y335159D01*
X209148Y335159D02*
X209148Y330201D01*
X207495Y328549D01*
X202538Y328549D01*
X202538Y326897D02*
X202538Y335159D01*
X202538Y326897D02*
X204190Y325244D01*
X205843Y325244D01*
X195801Y330201D02*
X195801Y336811D01*
X195801Y330201D02*
X194149Y328549D01*
X194149Y335159D02*
X197454Y335159D01*
X188005Y328549D02*
X184700Y328549D01*
X188005Y328549D02*
X189658Y330201D01*
X189658Y333506D01*
X188005Y335159D01*
X184700Y335159D01*
X183048Y333506D01*
X183048Y331854D01*
X189658Y331854D01*
X177964Y328549D02*
X177964Y335159D01*
X176311Y335159D01*
X174659Y333506D01*
X174659Y328549D01*
X174659Y333506D02*
X173006Y335159D01*
X171354Y333506D01*
X171354Y328549D01*
X166270Y328549D02*
X161312Y328549D01*
X159660Y330201D01*
X161312Y331854D01*
X164617Y331854D01*
X166270Y333506D01*
X164617Y335159D01*
X159660Y335159D01*
X139577Y338463D02*
X139577Y328549D01*
X142882Y338463D02*
X136272Y338463D01*
X129535Y328549D02*
X126231Y328549D01*
X129535Y328549D02*
X131188Y330201D01*
X131188Y333506D01*
X129535Y335159D01*
X126231Y335159D01*
X124578Y333506D01*
X124578Y331854D01*
X131188Y331854D01*
X117841Y335159D02*
X112884Y335159D01*
X117841Y335159D02*
X119494Y333506D01*
X119494Y330201D01*
X117841Y328549D01*
X112884Y328549D01*
X107800Y328549D02*
X107800Y338463D01*
X106147Y335159D02*
X107800Y333506D01*
X106147Y335159D02*
X102843Y335159D01*
X101190Y333506D01*
X101190Y328549D01*
X96106Y328549D02*
X96106Y335159D01*
X91149Y335159D01*
X89496Y333506D01*
X89496Y328549D01*
X82759Y328549D02*
X79455Y328549D01*
X77802Y330201D01*
X77802Y333506D01*
X79455Y335159D01*
X82759Y335159D01*
X84412Y333506D01*
X84412Y330201D01*
X82759Y328549D01*
X72718Y338463D02*
X71065Y338463D01*
X71065Y328549D01*
X69413Y328549D02*
X72718Y328549D01*
X63270Y328549D02*
X59965Y328549D01*
X58312Y330201D01*
X58312Y333506D01*
X59965Y335159D01*
X63270Y335159D01*
X64922Y333506D01*
X64922Y330201D01*
X63270Y328549D01*
X49923Y325244D02*
X48271Y325244D01*
X46618Y326897D01*
X46618Y335159D01*
X51576Y335159D01*
X53228Y333506D01*
X53228Y330201D01*
X51576Y328549D01*
X46618Y328549D01*
X41534Y330201D02*
X41534Y335159D01*
X41534Y330201D02*
X39882Y328549D01*
X34924Y328549D01*
X34924Y326897D02*
X34924Y335159D01*
X34924Y326897D02*
X36577Y325244D01*
X38229Y325244D01*
X18146Y328549D02*
X18146Y338463D01*
X18146Y328549D02*
X11536Y328549D01*
X6452Y335159D02*
X4800Y335159D01*
X4800Y328549D01*
X6452Y328549D02*
X3147Y328549D01*
X4800Y338463D02*
X4800Y340116D01*
X-1344Y335159D02*
X-1344Y328549D01*
X-1344Y335159D02*
X-2996Y335159D01*
X-4649Y333506D01*
X-4649Y328549D01*
X-4649Y333506D02*
X-6301Y335159D01*
X-7954Y333506D01*
X-7954Y328549D01*
X-13038Y335159D02*
X-14690Y335159D01*
X-14690Y328549D01*
X-13038Y328549D02*
X-16343Y328549D01*
X-14690Y338463D02*
X-14690Y340116D01*
X-22486Y336811D02*
X-22486Y330201D01*
X-24139Y328549D01*
X-24139Y335159D02*
X-20834Y335159D01*
X-30282Y328549D02*
X-33587Y328549D01*
X-30282Y328549D02*
X-28630Y330201D01*
X-28630Y333506D01*
X-30282Y335159D01*
X-33587Y335159D01*
X-35239Y333506D01*
X-35239Y331854D01*
X-28630Y331854D01*
X-46933Y328549D02*
X-46933Y338463D01*
X-46933Y328549D02*
X-41976Y328549D01*
X-40324Y330201D01*
X-40324Y333506D01*
X-41976Y335159D01*
X-46933Y335159D01*
D10*
X166460Y239078D02*
X166460Y213678D01*
X166460Y239078D02*
X87720Y239078D01*
X87720Y213678D02*
X166460Y213678D01*
D14*
X99785Y226378D03*
D10*
X87085Y239078D02*
X87085Y213678D01*
D15*
X156253Y231548D02*
X157567Y232861D01*
X160194Y232861D01*
X161507Y231548D01*
X161507Y230234D01*
X160194Y228921D01*
X157567Y228921D01*
X156253Y227607D01*
X156253Y226294D01*
X157567Y224981D01*
X160194Y224981D01*
X161507Y226294D01*
X149525Y224981D02*
X149525Y232861D01*
X152152Y232861D02*
X146898Y232861D01*
X142797Y232861D02*
X142797Y224981D01*
X140170Y230234D02*
X142797Y232861D01*
X140170Y230234D02*
X137543Y232861D01*
X137543Y224981D01*
X133441Y231548D02*
X132128Y232861D01*
X129501Y232861D01*
X128188Y231548D01*
X128188Y230234D01*
X129501Y228921D01*
X130815Y228921D01*
X129501Y228921D02*
X128188Y227607D01*
X128188Y226294D01*
X129501Y224981D01*
X132128Y224981D01*
X133441Y226294D01*
X124086Y224981D02*
X118832Y224981D01*
X118832Y230234D02*
X124086Y224981D01*
X118832Y230234D02*
X118832Y231548D01*
X120146Y232861D01*
X122773Y232861D01*
X124086Y231548D01*
D10*
X338250Y225480D02*
X338250Y216480D01*
X360250Y216480D02*
X360250Y225480D01*
X333250Y224480D02*
X333252Y224543D01*
X333258Y224605D01*
X333268Y224667D01*
X333281Y224729D01*
X333299Y224789D01*
X333320Y224848D01*
X333345Y224906D01*
X333374Y224962D01*
X333406Y225016D01*
X333441Y225068D01*
X333479Y225117D01*
X333521Y225165D01*
X333565Y225209D01*
X333613Y225251D01*
X333662Y225289D01*
X333714Y225324D01*
X333768Y225356D01*
X333824Y225385D01*
X333882Y225410D01*
X333941Y225431D01*
X334001Y225449D01*
X334063Y225462D01*
X334125Y225472D01*
X334187Y225478D01*
X334250Y225480D01*
X334313Y225478D01*
X334375Y225472D01*
X334437Y225462D01*
X334499Y225449D01*
X334559Y225431D01*
X334618Y225410D01*
X334676Y225385D01*
X334732Y225356D01*
X334786Y225324D01*
X334838Y225289D01*
X334887Y225251D01*
X334935Y225209D01*
X334979Y225165D01*
X335021Y225117D01*
X335059Y225068D01*
X335094Y225016D01*
X335126Y224962D01*
X335155Y224906D01*
X335180Y224848D01*
X335201Y224789D01*
X335219Y224729D01*
X335232Y224667D01*
X335242Y224605D01*
X335248Y224543D01*
X335250Y224480D01*
X335248Y224417D01*
X335242Y224355D01*
X335232Y224293D01*
X335219Y224231D01*
X335201Y224171D01*
X335180Y224112D01*
X335155Y224054D01*
X335126Y223998D01*
X335094Y223944D01*
X335059Y223892D01*
X335021Y223843D01*
X334979Y223795D01*
X334935Y223751D01*
X334887Y223709D01*
X334838Y223671D01*
X334786Y223636D01*
X334732Y223604D01*
X334676Y223575D01*
X334618Y223550D01*
X334559Y223529D01*
X334499Y223511D01*
X334437Y223498D01*
X334375Y223488D01*
X334313Y223482D01*
X334250Y223480D01*
X334187Y223482D01*
X334125Y223488D01*
X334063Y223498D01*
X334001Y223511D01*
X333941Y223529D01*
X333882Y223550D01*
X333824Y223575D01*
X333768Y223604D01*
X333714Y223636D01*
X333662Y223671D01*
X333613Y223709D01*
X333565Y223751D01*
X333521Y223795D01*
X333479Y223843D01*
X333441Y223892D01*
X333406Y223944D01*
X333374Y223998D01*
X333345Y224054D01*
X333320Y224112D01*
X333299Y224171D01*
X333281Y224231D01*
X333268Y224293D01*
X333258Y224355D01*
X333252Y224417D01*
X333250Y224480D01*
D16*
X355018Y204363D02*
X355018Y198882D01*
X352278Y198882D01*
X351364Y199795D01*
X351364Y203449D01*
X352278Y204363D01*
X355018Y204363D01*
X348573Y204363D02*
X344919Y204363D01*
X348573Y204363D02*
X348573Y201622D01*
X346746Y202536D01*
X345832Y202536D01*
X344919Y201622D01*
X344919Y199795D01*
X345832Y198882D01*
X347659Y198882D01*
X348573Y199795D01*
D17*
X384900Y279400D02*
X542900Y279400D01*
X542900Y125400D01*
X370900Y125400D01*
X370900Y169400D01*
X384900Y169400D01*
X384900Y279400D01*
D16*
X389838Y120053D02*
X389838Y115485D01*
X388925Y114572D01*
X387098Y114572D01*
X386184Y115485D01*
X386184Y120053D01*
X380652Y120053D02*
X380652Y114572D01*
X383393Y117312D02*
X380652Y120053D01*
X379739Y117312D02*
X383393Y117312D01*
D17*
X184570Y135024D02*
X179270Y135024D01*
X184570Y135024D02*
X184997Y134996D01*
X185425Y134977D01*
X185852Y134969D01*
X186280Y134972D01*
X186708Y134985D01*
X187135Y135008D01*
X187562Y135041D01*
X187988Y135085D01*
X188412Y135139D01*
X188835Y135203D01*
X189257Y135277D01*
X189676Y135362D01*
X190093Y135456D01*
X190508Y135561D01*
X190921Y135676D01*
X191330Y135801D01*
X191736Y135935D01*
X192139Y136079D01*
X192538Y136233D01*
X192934Y136397D01*
X193325Y136570D01*
X193712Y136753D01*
X194095Y136944D01*
X194472Y137145D01*
X194845Y137355D01*
X195213Y137574D01*
X195575Y137802D01*
X195932Y138039D01*
X196283Y138284D01*
X196627Y138537D01*
X196966Y138799D01*
X197298Y139069D01*
X197624Y139347D01*
X197942Y139632D01*
X198254Y139925D01*
X198558Y140226D01*
X198856Y140534D01*
X199145Y140849D01*
X199427Y141171D01*
X199701Y141499D01*
X199967Y141835D01*
X200225Y142176D01*
X200475Y142524D01*
X200716Y142877D01*
X200949Y143236D01*
X201172Y143601D01*
X201387Y143971D01*
X201593Y144346D01*
X201790Y144726D01*
X201977Y145111D01*
X202155Y145500D01*
X202324Y145893D01*
X202483Y146291D01*
X202633Y146692D01*
X202773Y147096D01*
X202902Y147504D01*
X203023Y147914D01*
X203133Y148328D01*
X203233Y148744D01*
X203323Y149162D01*
X203403Y149583D01*
X203472Y150005D01*
X203532Y150429D01*
X203581Y150854D01*
X203620Y151280D01*
X203622Y151412D01*
X203628Y151545D01*
X203637Y151677D01*
X203651Y151808D01*
X203668Y151939D01*
X203689Y152070D01*
X203714Y152200D01*
X203743Y152329D01*
X203775Y152458D01*
X203811Y152585D01*
X203851Y152711D01*
X203894Y152836D01*
X203941Y152960D01*
X203992Y153082D01*
X204046Y153203D01*
X204104Y153322D01*
X204165Y153439D01*
X204230Y153555D01*
X204297Y153669D01*
X204369Y153780D01*
X204443Y153890D01*
X204520Y153997D01*
X204601Y154102D01*
X204684Y154205D01*
X204771Y154305D01*
X204860Y154402D01*
X204953Y154497D01*
X205048Y154590D01*
X205145Y154679D01*
X205245Y154766D01*
X205348Y154849D01*
X205453Y154930D01*
X205560Y155007D01*
X205670Y155081D01*
X205781Y155153D01*
X205895Y155220D01*
X206011Y155285D01*
X206128Y155346D01*
X206247Y155404D01*
X206368Y155458D01*
X206490Y155509D01*
X206614Y155556D01*
X206739Y155599D01*
X206865Y155639D01*
X206992Y155675D01*
X207121Y155707D01*
X207250Y155736D01*
X207380Y155761D01*
X207511Y155782D01*
X207642Y155799D01*
X207773Y155813D01*
X207905Y155822D01*
X208038Y155828D01*
X208170Y155830D01*
X290920Y155830D01*
X291078Y155828D01*
X291237Y155822D01*
X291395Y155812D01*
X291552Y155798D01*
X291710Y155781D01*
X291866Y155759D01*
X292023Y155734D01*
X292178Y155704D01*
X292333Y155671D01*
X292487Y155634D01*
X292640Y155593D01*
X292792Y155548D01*
X292942Y155499D01*
X293092Y155447D01*
X293240Y155391D01*
X293387Y155331D01*
X293532Y155268D01*
X293675Y155201D01*
X293817Y155131D01*
X293957Y155057D01*
X294095Y154979D01*
X294231Y154898D01*
X294365Y154814D01*
X294497Y154727D01*
X294627Y154636D01*
X294754Y154542D01*
X294879Y154445D01*
X295002Y154344D01*
X295122Y154241D01*
X295239Y154135D01*
X295354Y154026D01*
X295466Y153914D01*
X295575Y153799D01*
X295681Y153682D01*
X295784Y153562D01*
X295885Y153439D01*
X295982Y153314D01*
X296076Y153187D01*
X296167Y153057D01*
X296254Y152925D01*
X296338Y152791D01*
X296419Y152655D01*
X296497Y152517D01*
X296571Y152377D01*
X296641Y152235D01*
X296708Y152092D01*
X296771Y151947D01*
X296831Y151800D01*
X296887Y151652D01*
X296939Y151502D01*
X296988Y151352D01*
X297033Y151200D01*
X297074Y151047D01*
X297111Y150893D01*
X297144Y150738D01*
X297174Y150583D01*
X297199Y150426D01*
X297221Y150270D01*
X297238Y150112D01*
X297252Y149955D01*
X297262Y149797D01*
X297268Y149638D01*
X297270Y149480D01*
X297236Y149167D01*
X297211Y148854D01*
X297193Y148540D01*
X297183Y148226D01*
X297180Y147911D01*
X297185Y147597D01*
X297197Y147282D01*
X297218Y146969D01*
X297245Y146655D01*
X297280Y146343D01*
X297323Y146031D01*
X297373Y145721D01*
X297431Y145412D01*
X297496Y145104D01*
X297569Y144798D01*
X297649Y144494D01*
X297736Y144192D01*
X297831Y143892D01*
X297933Y143594D01*
X298042Y143299D01*
X298158Y143007D01*
X298281Y142718D01*
X298411Y142431D01*
X298548Y142148D01*
X298692Y141868D01*
X298842Y141592D01*
X298999Y141320D01*
X299163Y141051D01*
X299333Y140787D01*
X299509Y140526D01*
X299692Y140270D01*
X299881Y140019D01*
X300076Y139772D01*
X300276Y139530D01*
X300483Y139293D01*
X300695Y139060D01*
X300913Y138833D01*
X301136Y138612D01*
X301364Y138396D01*
X301598Y138185D01*
X301836Y137980D01*
X302080Y137781D01*
X302328Y137588D01*
X302581Y137401D01*
X302838Y137220D01*
X303100Y137046D01*
X303365Y136877D01*
X303635Y136716D01*
X303909Y136560D01*
X304186Y136412D01*
X304467Y136270D01*
X304751Y136135D01*
X305038Y136007D01*
X305328Y135886D01*
X305621Y135772D01*
X305917Y135665D01*
X306215Y135565D01*
X306516Y135473D01*
X306818Y135387D01*
X307123Y135309D01*
X307430Y135239D01*
X307738Y135176D01*
X308047Y135120D01*
X308358Y135072D01*
X308670Y135032D01*
X315270Y135032D01*
X315270Y280021D01*
X179270Y280021D01*
X179270Y135024D01*
X192660Y136780D02*
X192660Y212980D01*
X192660Y136780D02*
X192671Y136539D01*
X192688Y136298D01*
X192710Y136057D01*
X192739Y135817D01*
X192773Y135578D01*
X192813Y135340D01*
X192859Y135102D01*
X192911Y134866D01*
X192969Y134632D01*
X193032Y134398D01*
X193101Y134167D01*
X193176Y133937D01*
X193257Y133709D01*
X193342Y133483D01*
X193434Y133259D01*
X193531Y133038D01*
X193633Y132819D01*
X193741Y132603D01*
X193854Y132389D01*
X193972Y132178D01*
X194095Y131970D01*
X194224Y131765D01*
X194357Y131564D01*
X194495Y131366D01*
X194638Y131171D01*
X194786Y130980D01*
X194939Y130792D01*
X195096Y130608D01*
X195257Y130428D01*
X195423Y130253D01*
X195593Y130081D01*
X195768Y129914D01*
X195946Y129750D01*
X196128Y129592D01*
X196314Y129437D01*
X196504Y129288D01*
X196698Y129143D01*
X196895Y129003D01*
X197095Y128868D01*
X197299Y128738D01*
X197505Y128612D01*
X197715Y128492D01*
X197928Y128377D01*
X198143Y128268D01*
X198361Y128163D01*
X198582Y128064D01*
X198805Y127971D01*
X199030Y127883D01*
X199257Y127800D01*
X199486Y127724D01*
X199717Y127652D01*
X199950Y127587D01*
X200184Y127527D01*
X200419Y127473D01*
X200656Y127425D01*
X200894Y127382D01*
X201133Y127346D01*
X201373Y127315D01*
X201613Y127290D01*
X201854Y127271D01*
X202096Y127258D01*
X202337Y127251D01*
X202579Y127250D01*
X202821Y127255D01*
X202820Y127255D02*
X291720Y127255D01*
X291958Y127250D01*
X292196Y127251D01*
X292434Y127258D01*
X292672Y127270D01*
X292909Y127289D01*
X293146Y127313D01*
X293382Y127342D01*
X293617Y127377D01*
X293852Y127418D01*
X294085Y127465D01*
X294317Y127517D01*
X294548Y127575D01*
X294778Y127639D01*
X295005Y127708D01*
X295231Y127782D01*
X295456Y127862D01*
X295678Y127947D01*
X295898Y128038D01*
X296116Y128134D01*
X296331Y128235D01*
X296544Y128341D01*
X296754Y128453D01*
X296962Y128569D01*
X297166Y128691D01*
X297368Y128817D01*
X297567Y128948D01*
X297762Y129084D01*
X297954Y129225D01*
X298142Y129370D01*
X298327Y129520D01*
X298509Y129674D01*
X298686Y129833D01*
X298860Y129995D01*
X299029Y130162D01*
X299195Y130333D01*
X299356Y130508D01*
X299513Y130687D01*
X299666Y130869D01*
X299814Y131056D01*
X299958Y131245D01*
X300097Y131438D01*
X300232Y131635D01*
X300361Y131834D01*
X300486Y132037D01*
X300606Y132243D01*
X300721Y132451D01*
X300830Y132662D01*
X300935Y132876D01*
X301034Y133092D01*
X301129Y133311D01*
X301218Y133532D01*
X301301Y133754D01*
X301379Y133979D01*
X301452Y134206D01*
X301519Y134434D01*
X301580Y134664D01*
X301637Y134895D01*
X301687Y135128D01*
X301732Y135362D01*
X301771Y135596D01*
X301804Y135832D01*
X301832Y136068D01*
X301854Y136305D01*
X301870Y136543D01*
X301881Y136780D01*
X301880Y136780D02*
X301880Y270130D01*
X301878Y270288D01*
X301872Y270447D01*
X301862Y270605D01*
X301848Y270762D01*
X301831Y270920D01*
X301809Y271076D01*
X301784Y271233D01*
X301754Y271388D01*
X301721Y271543D01*
X301684Y271697D01*
X301643Y271850D01*
X301598Y272002D01*
X301549Y272152D01*
X301497Y272302D01*
X301441Y272450D01*
X301381Y272597D01*
X301318Y272742D01*
X301251Y272885D01*
X301181Y273027D01*
X301107Y273167D01*
X301029Y273305D01*
X300948Y273441D01*
X300864Y273575D01*
X300777Y273707D01*
X300686Y273837D01*
X300592Y273964D01*
X300495Y274089D01*
X300394Y274212D01*
X300291Y274332D01*
X300185Y274449D01*
X300076Y274564D01*
X299964Y274676D01*
X299849Y274785D01*
X299732Y274891D01*
X299612Y274994D01*
X299489Y275095D01*
X299364Y275192D01*
X299237Y275286D01*
X299107Y275377D01*
X298975Y275464D01*
X298841Y275548D01*
X298705Y275629D01*
X298567Y275707D01*
X298427Y275781D01*
X298285Y275851D01*
X298142Y275918D01*
X297997Y275981D01*
X297850Y276041D01*
X297702Y276097D01*
X297552Y276149D01*
X297402Y276198D01*
X297250Y276243D01*
X297097Y276284D01*
X296943Y276321D01*
X296788Y276354D01*
X296633Y276384D01*
X296476Y276409D01*
X296320Y276431D01*
X296162Y276448D01*
X296005Y276462D01*
X295847Y276472D01*
X295688Y276478D01*
X295530Y276480D01*
X215520Y276480D01*
X215362Y276478D01*
X215203Y276472D01*
X215045Y276462D01*
X214888Y276448D01*
X214730Y276431D01*
X214574Y276409D01*
X214417Y276384D01*
X214262Y276354D01*
X214107Y276321D01*
X213953Y276284D01*
X213800Y276243D01*
X213648Y276198D01*
X213498Y276149D01*
X213348Y276097D01*
X213200Y276041D01*
X213053Y275981D01*
X212908Y275918D01*
X212765Y275851D01*
X212623Y275781D01*
X212483Y275707D01*
X212345Y275629D01*
X212209Y275548D01*
X212075Y275464D01*
X211943Y275377D01*
X211813Y275286D01*
X211686Y275192D01*
X211561Y275095D01*
X211438Y274994D01*
X211318Y274891D01*
X211201Y274785D01*
X211086Y274676D01*
X210974Y274564D01*
X210865Y274449D01*
X210759Y274332D01*
X210656Y274212D01*
X210555Y274089D01*
X210458Y273964D01*
X210364Y273837D01*
X210273Y273707D01*
X210186Y273575D01*
X210102Y273441D01*
X210021Y273305D01*
X209943Y273167D01*
X209869Y273027D01*
X209799Y272885D01*
X209732Y272742D01*
X209669Y272597D01*
X209609Y272450D01*
X209553Y272302D01*
X209501Y272152D01*
X209452Y272002D01*
X209407Y271850D01*
X209366Y271697D01*
X209329Y271543D01*
X209296Y271388D01*
X209266Y271233D01*
X209241Y271076D01*
X209219Y270920D01*
X209202Y270762D01*
X209188Y270605D01*
X209178Y270447D01*
X209172Y270288D01*
X209170Y270130D01*
X209170Y232030D01*
X209168Y231872D01*
X209162Y231713D01*
X209152Y231555D01*
X209138Y231398D01*
X209121Y231240D01*
X209099Y231084D01*
X209074Y230927D01*
X209044Y230772D01*
X209011Y230617D01*
X208974Y230463D01*
X208933Y230310D01*
X208888Y230158D01*
X208839Y230008D01*
X208787Y229858D01*
X208731Y229710D01*
X208671Y229563D01*
X208608Y229418D01*
X208541Y229275D01*
X208471Y229133D01*
X208397Y228993D01*
X208319Y228855D01*
X208238Y228719D01*
X208154Y228585D01*
X208067Y228453D01*
X207976Y228323D01*
X207882Y228196D01*
X207785Y228071D01*
X207684Y227948D01*
X207581Y227828D01*
X207475Y227711D01*
X207366Y227596D01*
X207254Y227484D01*
X207139Y227375D01*
X207022Y227269D01*
X206902Y227166D01*
X206779Y227065D01*
X206654Y226968D01*
X206527Y226874D01*
X206397Y226783D01*
X206265Y226696D01*
X206131Y226612D01*
X205995Y226531D01*
X205857Y226453D01*
X205717Y226379D01*
X205575Y226309D01*
X205432Y226242D01*
X205287Y226179D01*
X205140Y226119D01*
X204992Y226063D01*
X204842Y226011D01*
X204692Y225962D01*
X204540Y225917D01*
X204387Y225876D01*
X204233Y225839D01*
X204078Y225806D01*
X203923Y225776D01*
X203766Y225751D01*
X203610Y225729D01*
X203452Y225712D01*
X203295Y225698D01*
X203137Y225688D01*
X202978Y225682D01*
X202820Y225680D01*
X202540Y225645D01*
X202261Y225604D01*
X201983Y225555D01*
X201706Y225500D01*
X201430Y225438D01*
X201157Y225370D01*
X200885Y225294D01*
X200615Y225212D01*
X200347Y225124D01*
X200081Y225029D01*
X199818Y224927D01*
X199557Y224819D01*
X199299Y224704D01*
X199044Y224584D01*
X198792Y224457D01*
X198543Y224324D01*
X198297Y224184D01*
X198055Y224039D01*
X197817Y223888D01*
X197582Y223731D01*
X197351Y223569D01*
X197125Y223401D01*
X196902Y223227D01*
X196684Y223048D01*
X196470Y222863D01*
X196261Y222674D01*
X196057Y222479D01*
X195857Y222280D01*
X195663Y222075D01*
X195473Y221866D01*
X195289Y221652D01*
X195110Y221434D01*
X194936Y221211D01*
X194768Y220985D01*
X194606Y220754D01*
X194449Y220519D01*
X194298Y220281D01*
X194153Y220039D01*
X194014Y219793D01*
X193881Y219544D01*
X193754Y219292D01*
X193634Y219037D01*
X193519Y218779D01*
X193411Y218518D01*
X193310Y218255D01*
X193215Y217989D01*
X193126Y217721D01*
X193044Y217451D01*
X192969Y217179D01*
X192901Y216905D01*
X192839Y216629D01*
X192784Y216353D01*
X192736Y216074D01*
X192694Y215795D01*
X192660Y215515D01*
X192632Y215234D01*
X192611Y214953D01*
X192598Y214671D01*
X192591Y214389D01*
X192591Y214106D01*
X192598Y213824D01*
X192612Y213542D01*
X192633Y213261D01*
X192660Y212980D01*
D16*
X233478Y115085D02*
X232565Y114172D01*
X231651Y114172D01*
X230738Y115085D01*
X230738Y119653D01*
X231651Y119653D02*
X229824Y119653D01*
X227033Y119653D02*
X223379Y119653D01*
X223379Y118739D01*
X227033Y115085D01*
X227033Y114172D01*
D17*
X-98806Y155956D02*
X-98806Y183896D01*
X-98806Y155956D02*
X-86106Y155956D01*
X-86106Y183896D01*
X-98806Y183896D01*
D16*
X-88052Y152659D02*
X-88965Y151745D01*
X-88052Y152659D02*
X-86225Y152659D01*
X-85312Y151745D01*
X-85312Y148091D01*
X-86225Y147178D01*
X-88052Y147178D01*
X-88965Y148091D01*
X-91757Y150832D02*
X-93584Y152659D01*
X-93584Y147178D01*
X-91757Y147178D02*
X-95411Y147178D01*
X-98203Y151745D02*
X-99116Y152659D01*
X-100943Y152659D01*
X-101856Y151745D01*
X-101856Y150832D01*
X-100943Y149918D01*
X-101856Y149005D01*
X-101856Y148091D01*
X-100943Y147178D01*
X-99116Y147178D01*
X-98203Y148091D01*
X-98203Y149005D01*
X-99116Y149918D01*
X-98203Y150832D01*
X-98203Y151745D01*
X-99116Y149918D02*
X-100943Y149918D01*
D18*
X-43292Y91016D02*
X6208Y91016D01*
X-43292Y91016D02*
X-43292Y38016D01*
X6208Y38016D01*
X6208Y91016D01*
D17*
X-3704Y83516D02*
X-3702Y83628D01*
X-3696Y83740D01*
X-3686Y83852D01*
X-3672Y83963D01*
X-3654Y84074D01*
X-3633Y84184D01*
X-3607Y84294D01*
X-3577Y84402D01*
X-3544Y84509D01*
X-3507Y84615D01*
X-3466Y84720D01*
X-3421Y84823D01*
X-3373Y84924D01*
X-3321Y85024D01*
X-3266Y85121D01*
X-3208Y85217D01*
X-3146Y85310D01*
X-3080Y85402D01*
X-3012Y85491D01*
X-2940Y85577D01*
X-2865Y85661D01*
X-2788Y85742D01*
X-2707Y85820D01*
X-2624Y85896D01*
X-2538Y85968D01*
X-2450Y86037D01*
X-2359Y86103D01*
X-2267Y86166D01*
X-2171Y86226D01*
X-2074Y86282D01*
X-1975Y86335D01*
X-1874Y86384D01*
X-1771Y86429D01*
X-1667Y86471D01*
X-1562Y86509D01*
X-1455Y86543D01*
X-1347Y86574D01*
X-1238Y86600D01*
X-1128Y86623D01*
X-1017Y86642D01*
X-906Y86657D01*
X-794Y86668D01*
X-682Y86675D01*
X-570Y86678D01*
X-458Y86677D01*
X-346Y86672D01*
X-234Y86663D01*
X-122Y86650D01*
X-11Y86633D01*
X99Y86612D01*
X208Y86588D01*
X317Y86559D01*
X424Y86527D01*
X531Y86490D01*
X636Y86451D01*
X739Y86407D01*
X841Y86360D01*
X941Y86309D01*
X1039Y86254D01*
X1135Y86197D01*
X1229Y86135D01*
X1321Y86071D01*
X1411Y86003D01*
X1498Y85932D01*
X1582Y85858D01*
X1664Y85781D01*
X1743Y85702D01*
X1819Y85619D01*
X1892Y85534D01*
X1962Y85446D01*
X2029Y85356D01*
X2093Y85264D01*
X2153Y85169D01*
X2210Y85073D01*
X2264Y84974D01*
X2314Y84873D01*
X2360Y84771D01*
X2403Y84667D01*
X2442Y84562D01*
X2477Y84456D01*
X2509Y84348D01*
X2536Y84239D01*
X2560Y84129D01*
X2580Y84019D01*
X2596Y83908D01*
X2608Y83796D01*
X2616Y83684D01*
X2620Y83572D01*
X2620Y83460D01*
X2616Y83348D01*
X2608Y83236D01*
X2596Y83124D01*
X2580Y83013D01*
X2560Y82903D01*
X2536Y82793D01*
X2509Y82684D01*
X2477Y82576D01*
X2442Y82470D01*
X2403Y82365D01*
X2360Y82261D01*
X2314Y82159D01*
X2264Y82058D01*
X2210Y81959D01*
X2153Y81863D01*
X2093Y81768D01*
X2029Y81676D01*
X1962Y81586D01*
X1892Y81498D01*
X1819Y81413D01*
X1743Y81330D01*
X1664Y81251D01*
X1582Y81174D01*
X1498Y81100D01*
X1411Y81029D01*
X1321Y80961D01*
X1229Y80897D01*
X1135Y80835D01*
X1039Y80778D01*
X941Y80723D01*
X841Y80672D01*
X739Y80625D01*
X636Y80581D01*
X531Y80542D01*
X424Y80505D01*
X317Y80473D01*
X208Y80444D01*
X99Y80420D01*
X-11Y80399D01*
X-122Y80382D01*
X-234Y80369D01*
X-346Y80360D01*
X-458Y80355D01*
X-570Y80354D01*
X-682Y80357D01*
X-794Y80364D01*
X-906Y80375D01*
X-1017Y80390D01*
X-1128Y80409D01*
X-1238Y80432D01*
X-1347Y80458D01*
X-1455Y80489D01*
X-1562Y80523D01*
X-1667Y80561D01*
X-1771Y80603D01*
X-1874Y80648D01*
X-1975Y80697D01*
X-2074Y80750D01*
X-2171Y80806D01*
X-2267Y80866D01*
X-2359Y80929D01*
X-2450Y80995D01*
X-2538Y81064D01*
X-2624Y81136D01*
X-2707Y81212D01*
X-2788Y81290D01*
X-2865Y81371D01*
X-2940Y81455D01*
X-3012Y81541D01*
X-3080Y81630D01*
X-3146Y81722D01*
X-3208Y81815D01*
X-3266Y81911D01*
X-3321Y82008D01*
X-3373Y82108D01*
X-3421Y82209D01*
X-3466Y82312D01*
X-3507Y82417D01*
X-3544Y82523D01*
X-3577Y82630D01*
X-3607Y82738D01*
X-3633Y82848D01*
X-3654Y82958D01*
X-3672Y83069D01*
X-3686Y83180D01*
X-3696Y83292D01*
X-3702Y83404D01*
X-3704Y83516D01*
X-2778Y83516D02*
X-2776Y83610D01*
X-2770Y83704D01*
X-2760Y83798D01*
X-2746Y83891D01*
X-2728Y83984D01*
X-2707Y84076D01*
X-2681Y84166D01*
X-2652Y84256D01*
X-2619Y84344D01*
X-2582Y84431D01*
X-2542Y84516D01*
X-2498Y84600D01*
X-2450Y84681D01*
X-2400Y84761D01*
X-2345Y84838D01*
X-2288Y84913D01*
X-2228Y84985D01*
X-2164Y85055D01*
X-2098Y85122D01*
X-2029Y85186D01*
X-1957Y85247D01*
X-1883Y85305D01*
X-1806Y85360D01*
X-1727Y85412D01*
X-1646Y85460D01*
X-1563Y85505D01*
X-1479Y85546D01*
X-1392Y85584D01*
X-1304Y85618D01*
X-1215Y85648D01*
X-1125Y85675D01*
X-1033Y85697D01*
X-941Y85716D01*
X-847Y85731D01*
X-754Y85742D01*
X-660Y85749D01*
X-566Y85752D01*
X-471Y85751D01*
X-377Y85746D01*
X-283Y85737D01*
X-190Y85724D01*
X-97Y85707D01*
X-5Y85687D01*
X86Y85662D01*
X176Y85634D01*
X264Y85602D01*
X352Y85566D01*
X437Y85526D01*
X521Y85483D01*
X603Y85437D01*
X683Y85387D01*
X761Y85333D01*
X836Y85277D01*
X909Y85217D01*
X980Y85154D01*
X1047Y85089D01*
X1112Y85020D01*
X1174Y84949D01*
X1233Y84876D01*
X1289Y84800D01*
X1341Y84721D01*
X1390Y84641D01*
X1436Y84558D01*
X1478Y84474D01*
X1517Y84388D01*
X1552Y84300D01*
X1583Y84211D01*
X1611Y84121D01*
X1634Y84030D01*
X1654Y83938D01*
X1670Y83845D01*
X1682Y83751D01*
X1690Y83657D01*
X1694Y83563D01*
X1694Y83469D01*
X1690Y83375D01*
X1682Y83281D01*
X1670Y83187D01*
X1654Y83094D01*
X1634Y83002D01*
X1611Y82911D01*
X1583Y82821D01*
X1552Y82732D01*
X1517Y82644D01*
X1478Y82558D01*
X1436Y82474D01*
X1390Y82391D01*
X1341Y82311D01*
X1289Y82232D01*
X1233Y82156D01*
X1174Y82083D01*
X1112Y82012D01*
X1047Y81943D01*
X980Y81878D01*
X909Y81815D01*
X836Y81755D01*
X761Y81699D01*
X683Y81645D01*
X603Y81595D01*
X521Y81549D01*
X437Y81506D01*
X352Y81466D01*
X264Y81430D01*
X176Y81398D01*
X86Y81370D01*
X-5Y81345D01*
X-97Y81325D01*
X-190Y81308D01*
X-283Y81295D01*
X-377Y81286D01*
X-471Y81281D01*
X-566Y81280D01*
X-660Y81283D01*
X-754Y81290D01*
X-847Y81301D01*
X-941Y81316D01*
X-1033Y81335D01*
X-1125Y81357D01*
X-1215Y81384D01*
X-1304Y81414D01*
X-1392Y81448D01*
X-1479Y81486D01*
X-1563Y81527D01*
X-1646Y81572D01*
X-1727Y81620D01*
X-1806Y81672D01*
X-1883Y81727D01*
X-1957Y81785D01*
X-2029Y81846D01*
X-2098Y81910D01*
X-2164Y81977D01*
X-2228Y82047D01*
X-2288Y82119D01*
X-2345Y82194D01*
X-2400Y82271D01*
X-2450Y82351D01*
X-2498Y82432D01*
X-2542Y82516D01*
X-2582Y82601D01*
X-2619Y82688D01*
X-2652Y82776D01*
X-2681Y82866D01*
X-2707Y82956D01*
X-2728Y83048D01*
X-2746Y83141D01*
X-2760Y83234D01*
X-2770Y83328D01*
X-2776Y83422D01*
X-2778Y83516D01*
X-1956Y83516D02*
X-1954Y83591D01*
X-1948Y83665D01*
X-1938Y83739D01*
X-1925Y83812D01*
X-1907Y83885D01*
X-1886Y83956D01*
X-1861Y84027D01*
X-1832Y84096D01*
X-1799Y84163D01*
X-1763Y84228D01*
X-1724Y84292D01*
X-1682Y84353D01*
X-1636Y84412D01*
X-1587Y84469D01*
X-1535Y84522D01*
X-1481Y84573D01*
X-1424Y84622D01*
X-1364Y84666D01*
X-1302Y84708D01*
X-1238Y84747D01*
X-1172Y84782D01*
X-1105Y84813D01*
X-1035Y84841D01*
X-965Y84865D01*
X-893Y84886D01*
X-820Y84902D01*
X-747Y84915D01*
X-672Y84924D01*
X-598Y84929D01*
X-523Y84930D01*
X-449Y84927D01*
X-374Y84920D01*
X-301Y84909D01*
X-227Y84895D01*
X-155Y84876D01*
X-84Y84854D01*
X-14Y84828D01*
X55Y84798D01*
X121Y84765D01*
X186Y84728D01*
X249Y84688D01*
X310Y84644D01*
X368Y84598D01*
X424Y84548D01*
X477Y84496D01*
X528Y84441D01*
X575Y84383D01*
X619Y84323D01*
X660Y84260D01*
X698Y84196D01*
X732Y84130D01*
X763Y84061D01*
X790Y83992D01*
X813Y83921D01*
X832Y83849D01*
X848Y83776D01*
X860Y83702D01*
X868Y83628D01*
X872Y83553D01*
X872Y83479D01*
X868Y83404D01*
X860Y83330D01*
X848Y83256D01*
X832Y83183D01*
X813Y83111D01*
X790Y83040D01*
X763Y82971D01*
X732Y82902D01*
X698Y82836D01*
X660Y82772D01*
X619Y82709D01*
X575Y82649D01*
X528Y82591D01*
X477Y82536D01*
X424Y82484D01*
X368Y82434D01*
X310Y82388D01*
X249Y82344D01*
X186Y82304D01*
X121Y82267D01*
X55Y82234D01*
X-14Y82204D01*
X-84Y82178D01*
X-155Y82156D01*
X-227Y82137D01*
X-301Y82123D01*
X-374Y82112D01*
X-449Y82105D01*
X-523Y82102D01*
X-598Y82103D01*
X-672Y82108D01*
X-747Y82117D01*
X-820Y82130D01*
X-893Y82146D01*
X-965Y82167D01*
X-1035Y82191D01*
X-1105Y82219D01*
X-1172Y82250D01*
X-1238Y82285D01*
X-1302Y82324D01*
X-1364Y82366D01*
X-1424Y82410D01*
X-1481Y82459D01*
X-1535Y82510D01*
X-1587Y82563D01*
X-1636Y82620D01*
X-1682Y82679D01*
X-1724Y82740D01*
X-1763Y82804D01*
X-1799Y82869D01*
X-1832Y82936D01*
X-1861Y83005D01*
X-1886Y83076D01*
X-1907Y83147D01*
X-1925Y83220D01*
X-1938Y83293D01*
X-1948Y83367D01*
X-1954Y83441D01*
X-1956Y83516D01*
X-1542Y83516D02*
X-1540Y83579D01*
X-1534Y83641D01*
X-1524Y83703D01*
X-1511Y83765D01*
X-1493Y83825D01*
X-1472Y83884D01*
X-1447Y83942D01*
X-1418Y83998D01*
X-1386Y84052D01*
X-1351Y84104D01*
X-1313Y84153D01*
X-1271Y84201D01*
X-1227Y84245D01*
X-1179Y84287D01*
X-1130Y84325D01*
X-1078Y84360D01*
X-1024Y84392D01*
X-968Y84421D01*
X-910Y84446D01*
X-851Y84467D01*
X-791Y84485D01*
X-729Y84498D01*
X-667Y84508D01*
X-605Y84514D01*
X-542Y84516D01*
X-479Y84514D01*
X-417Y84508D01*
X-355Y84498D01*
X-293Y84485D01*
X-233Y84467D01*
X-174Y84446D01*
X-116Y84421D01*
X-60Y84392D01*
X-6Y84360D01*
X46Y84325D01*
X95Y84287D01*
X143Y84245D01*
X187Y84201D01*
X229Y84153D01*
X267Y84104D01*
X302Y84052D01*
X334Y83998D01*
X363Y83942D01*
X388Y83884D01*
X409Y83825D01*
X427Y83765D01*
X440Y83703D01*
X450Y83641D01*
X456Y83579D01*
X458Y83516D01*
X456Y83453D01*
X450Y83391D01*
X440Y83329D01*
X427Y83267D01*
X409Y83207D01*
X388Y83148D01*
X363Y83090D01*
X334Y83034D01*
X302Y82980D01*
X267Y82928D01*
X229Y82879D01*
X187Y82831D01*
X143Y82787D01*
X95Y82745D01*
X46Y82707D01*
X-6Y82672D01*
X-60Y82640D01*
X-116Y82611D01*
X-174Y82586D01*
X-233Y82565D01*
X-293Y82547D01*
X-355Y82534D01*
X-417Y82524D01*
X-479Y82518D01*
X-542Y82516D01*
X-605Y82518D01*
X-667Y82524D01*
X-729Y82534D01*
X-791Y82547D01*
X-851Y82565D01*
X-910Y82586D01*
X-968Y82611D01*
X-1024Y82640D01*
X-1078Y82672D01*
X-1130Y82707D01*
X-1179Y82745D01*
X-1227Y82787D01*
X-1271Y82831D01*
X-1313Y82879D01*
X-1351Y82928D01*
X-1386Y82980D01*
X-1418Y83034D01*
X-1447Y83090D01*
X-1472Y83148D01*
X-1493Y83207D01*
X-1511Y83267D01*
X-1524Y83329D01*
X-1534Y83391D01*
X-1540Y83453D01*
X-1542Y83516D01*
X-1542Y82516D02*
X-1540Y82579D01*
X-1534Y82641D01*
X-1524Y82703D01*
X-1511Y82765D01*
X-1493Y82825D01*
X-1472Y82884D01*
X-1447Y82942D01*
X-1418Y82998D01*
X-1386Y83052D01*
X-1351Y83104D01*
X-1313Y83153D01*
X-1271Y83201D01*
X-1227Y83245D01*
X-1179Y83287D01*
X-1130Y83325D01*
X-1078Y83360D01*
X-1024Y83392D01*
X-968Y83421D01*
X-910Y83446D01*
X-851Y83467D01*
X-791Y83485D01*
X-729Y83498D01*
X-667Y83508D01*
X-605Y83514D01*
X-542Y83516D01*
X-479Y83514D01*
X-417Y83508D01*
X-355Y83498D01*
X-293Y83485D01*
X-233Y83467D01*
X-174Y83446D01*
X-116Y83421D01*
X-60Y83392D01*
X-6Y83360D01*
X46Y83325D01*
X95Y83287D01*
X143Y83245D01*
X187Y83201D01*
X229Y83153D01*
X267Y83104D01*
X302Y83052D01*
X334Y82998D01*
X363Y82942D01*
X388Y82884D01*
X409Y82825D01*
X427Y82765D01*
X440Y82703D01*
X450Y82641D01*
X456Y82579D01*
X458Y82516D01*
X456Y82453D01*
X450Y82391D01*
X440Y82329D01*
X427Y82267D01*
X409Y82207D01*
X388Y82148D01*
X363Y82090D01*
X334Y82034D01*
X302Y81980D01*
X267Y81928D01*
X229Y81879D01*
X187Y81831D01*
X143Y81787D01*
X95Y81745D01*
X46Y81707D01*
X-6Y81672D01*
X-60Y81640D01*
X-116Y81611D01*
X-174Y81586D01*
X-233Y81565D01*
X-293Y81547D01*
X-355Y81534D01*
X-417Y81524D01*
X-479Y81518D01*
X-542Y81516D01*
X-605Y81518D01*
X-667Y81524D01*
X-729Y81534D01*
X-791Y81547D01*
X-851Y81565D01*
X-910Y81586D01*
X-968Y81611D01*
X-1024Y81640D01*
X-1078Y81672D01*
X-1130Y81707D01*
X-1179Y81745D01*
X-1227Y81787D01*
X-1271Y81831D01*
X-1313Y81879D01*
X-1351Y81928D01*
X-1386Y81980D01*
X-1418Y82034D01*
X-1447Y82090D01*
X-1472Y82148D01*
X-1493Y82207D01*
X-1511Y82267D01*
X-1524Y82329D01*
X-1534Y82391D01*
X-1540Y82453D01*
X-1542Y82516D01*
X15222Y90516D02*
X15224Y90610D01*
X15230Y90704D01*
X15240Y90798D01*
X15254Y90891D01*
X15272Y90984D01*
X15293Y91076D01*
X15319Y91166D01*
X15348Y91256D01*
X15381Y91344D01*
X15418Y91431D01*
X15458Y91516D01*
X15502Y91600D01*
X15550Y91681D01*
X15600Y91761D01*
X15655Y91838D01*
X15712Y91913D01*
X15772Y91985D01*
X15836Y92055D01*
X15902Y92122D01*
X15971Y92186D01*
X16043Y92247D01*
X16117Y92305D01*
X16194Y92360D01*
X16273Y92412D01*
X16354Y92460D01*
X16437Y92505D01*
X16521Y92546D01*
X16608Y92584D01*
X16696Y92618D01*
X16785Y92648D01*
X16875Y92675D01*
X16967Y92697D01*
X17059Y92716D01*
X17153Y92731D01*
X17246Y92742D01*
X17340Y92749D01*
X17434Y92752D01*
X17529Y92751D01*
X17623Y92746D01*
X17717Y92737D01*
X17810Y92724D01*
X17903Y92707D01*
X17995Y92687D01*
X18086Y92662D01*
X18176Y92634D01*
X18264Y92602D01*
X18352Y92566D01*
X18437Y92526D01*
X18521Y92483D01*
X18603Y92437D01*
X18683Y92387D01*
X18761Y92333D01*
X18836Y92277D01*
X18909Y92217D01*
X18980Y92154D01*
X19047Y92089D01*
X19112Y92020D01*
X19174Y91949D01*
X19233Y91876D01*
X19289Y91800D01*
X19341Y91721D01*
X19390Y91641D01*
X19436Y91558D01*
X19478Y91474D01*
X19517Y91388D01*
X19552Y91300D01*
X19583Y91211D01*
X19611Y91121D01*
X19634Y91030D01*
X19654Y90938D01*
X19670Y90845D01*
X19682Y90751D01*
X19690Y90657D01*
X19694Y90563D01*
X19694Y90469D01*
X19690Y90375D01*
X19682Y90281D01*
X19670Y90187D01*
X19654Y90094D01*
X19634Y90002D01*
X19611Y89911D01*
X19583Y89821D01*
X19552Y89732D01*
X19517Y89644D01*
X19478Y89558D01*
X19436Y89474D01*
X19390Y89391D01*
X19341Y89311D01*
X19289Y89232D01*
X19233Y89156D01*
X19174Y89083D01*
X19112Y89012D01*
X19047Y88943D01*
X18980Y88878D01*
X18909Y88815D01*
X18836Y88755D01*
X18761Y88699D01*
X18683Y88645D01*
X18603Y88595D01*
X18521Y88549D01*
X18437Y88506D01*
X18352Y88466D01*
X18264Y88430D01*
X18176Y88398D01*
X18086Y88370D01*
X17995Y88345D01*
X17903Y88325D01*
X17810Y88308D01*
X17717Y88295D01*
X17623Y88286D01*
X17529Y88281D01*
X17434Y88280D01*
X17340Y88283D01*
X17246Y88290D01*
X17153Y88301D01*
X17059Y88316D01*
X16967Y88335D01*
X16875Y88357D01*
X16785Y88384D01*
X16696Y88414D01*
X16608Y88448D01*
X16521Y88486D01*
X16437Y88527D01*
X16354Y88572D01*
X16273Y88620D01*
X16194Y88672D01*
X16117Y88727D01*
X16043Y88785D01*
X15971Y88846D01*
X15902Y88910D01*
X15836Y88977D01*
X15772Y89047D01*
X15712Y89119D01*
X15655Y89194D01*
X15600Y89271D01*
X15550Y89351D01*
X15502Y89432D01*
X15458Y89516D01*
X15418Y89601D01*
X15381Y89688D01*
X15348Y89776D01*
X15319Y89866D01*
X15293Y89956D01*
X15272Y90048D01*
X15254Y90141D01*
X15240Y90234D01*
X15230Y90328D01*
X15224Y90422D01*
X15222Y90516D01*
X15458Y90516D02*
X15460Y90579D01*
X15466Y90641D01*
X15476Y90703D01*
X15489Y90765D01*
X15507Y90825D01*
X15528Y90884D01*
X15553Y90942D01*
X15582Y90998D01*
X15614Y91052D01*
X15649Y91104D01*
X15687Y91153D01*
X15729Y91201D01*
X15773Y91245D01*
X15821Y91287D01*
X15870Y91325D01*
X15922Y91360D01*
X15976Y91392D01*
X16032Y91421D01*
X16090Y91446D01*
X16149Y91467D01*
X16209Y91485D01*
X16271Y91498D01*
X16333Y91508D01*
X16395Y91514D01*
X16458Y91516D01*
X16521Y91514D01*
X16583Y91508D01*
X16645Y91498D01*
X16707Y91485D01*
X16767Y91467D01*
X16826Y91446D01*
X16884Y91421D01*
X16940Y91392D01*
X16994Y91360D01*
X17046Y91325D01*
X17095Y91287D01*
X17143Y91245D01*
X17187Y91201D01*
X17229Y91153D01*
X17267Y91104D01*
X17302Y91052D01*
X17334Y90998D01*
X17363Y90942D01*
X17388Y90884D01*
X17409Y90825D01*
X17427Y90765D01*
X17440Y90703D01*
X17450Y90641D01*
X17456Y90579D01*
X17458Y90516D01*
X17456Y90453D01*
X17450Y90391D01*
X17440Y90329D01*
X17427Y90267D01*
X17409Y90207D01*
X17388Y90148D01*
X17363Y90090D01*
X17334Y90034D01*
X17302Y89980D01*
X17267Y89928D01*
X17229Y89879D01*
X17187Y89831D01*
X17143Y89787D01*
X17095Y89745D01*
X17046Y89707D01*
X16994Y89672D01*
X16940Y89640D01*
X16884Y89611D01*
X16826Y89586D01*
X16767Y89565D01*
X16707Y89547D01*
X16645Y89534D01*
X16583Y89524D01*
X16521Y89518D01*
X16458Y89516D01*
X16395Y89518D01*
X16333Y89524D01*
X16271Y89534D01*
X16209Y89547D01*
X16149Y89565D01*
X16090Y89586D01*
X16032Y89611D01*
X15976Y89640D01*
X15922Y89672D01*
X15870Y89707D01*
X15821Y89745D01*
X15773Y89787D01*
X15729Y89831D01*
X15687Y89879D01*
X15649Y89928D01*
X15614Y89980D01*
X15582Y90034D01*
X15553Y90090D01*
X15528Y90148D01*
X15507Y90207D01*
X15489Y90267D01*
X15476Y90329D01*
X15466Y90391D01*
X15460Y90453D01*
X15458Y90516D01*
X16458Y90516D02*
X16460Y90579D01*
X16466Y90641D01*
X16476Y90703D01*
X16489Y90765D01*
X16507Y90825D01*
X16528Y90884D01*
X16553Y90942D01*
X16582Y90998D01*
X16614Y91052D01*
X16649Y91104D01*
X16687Y91153D01*
X16729Y91201D01*
X16773Y91245D01*
X16821Y91287D01*
X16870Y91325D01*
X16922Y91360D01*
X16976Y91392D01*
X17032Y91421D01*
X17090Y91446D01*
X17149Y91467D01*
X17209Y91485D01*
X17271Y91498D01*
X17333Y91508D01*
X17395Y91514D01*
X17458Y91516D01*
X17521Y91514D01*
X17583Y91508D01*
X17645Y91498D01*
X17707Y91485D01*
X17767Y91467D01*
X17826Y91446D01*
X17884Y91421D01*
X17940Y91392D01*
X17994Y91360D01*
X18046Y91325D01*
X18095Y91287D01*
X18143Y91245D01*
X18187Y91201D01*
X18229Y91153D01*
X18267Y91104D01*
X18302Y91052D01*
X18334Y90998D01*
X18363Y90942D01*
X18388Y90884D01*
X18409Y90825D01*
X18427Y90765D01*
X18440Y90703D01*
X18450Y90641D01*
X18456Y90579D01*
X18458Y90516D01*
X18456Y90453D01*
X18450Y90391D01*
X18440Y90329D01*
X18427Y90267D01*
X18409Y90207D01*
X18388Y90148D01*
X18363Y90090D01*
X18334Y90034D01*
X18302Y89980D01*
X18267Y89928D01*
X18229Y89879D01*
X18187Y89831D01*
X18143Y89787D01*
X18095Y89745D01*
X18046Y89707D01*
X17994Y89672D01*
X17940Y89640D01*
X17884Y89611D01*
X17826Y89586D01*
X17767Y89565D01*
X17707Y89547D01*
X17645Y89534D01*
X17583Y89524D01*
X17521Y89518D01*
X17458Y89516D01*
X17395Y89518D01*
X17333Y89524D01*
X17271Y89534D01*
X17209Y89547D01*
X17149Y89565D01*
X17090Y89586D01*
X17032Y89611D01*
X16976Y89640D01*
X16922Y89672D01*
X16870Y89707D01*
X16821Y89745D01*
X16773Y89787D01*
X16729Y89831D01*
X16687Y89879D01*
X16649Y89928D01*
X16614Y89980D01*
X16582Y90034D01*
X16553Y90090D01*
X16528Y90148D01*
X16507Y90207D01*
X16489Y90267D01*
X16476Y90329D01*
X16466Y90391D01*
X16460Y90453D01*
X16458Y90516D01*
D16*
X9728Y97226D02*
X9728Y101793D01*
X9728Y97226D02*
X8815Y96313D01*
X6988Y96313D01*
X6075Y97226D01*
X6075Y101793D01*
X3283Y99966D02*
X1456Y101793D01*
X1456Y96313D01*
X3283Y96313D02*
X-371Y96313D01*
X-3163Y97226D02*
X-3163Y100880D01*
X-4076Y101793D01*
X-5903Y101793D01*
X-6816Y100880D01*
X-6816Y97226D01*
X-5903Y96313D01*
X-4076Y96313D01*
X-3163Y97226D01*
X-6816Y100880D01*
M02*
