G04 EAGLE Gerber X2 export*
%TF.Part,Single*%
%TF.FileFunction,Paste,Bot*%
%TF.FilePolarity,Positive*%
%TF.GenerationSoftware,Autodesk,EAGLE,8.6.3*%
%TF.CreationDate,2023-08-23T14:46:16Z*%
G75*
%MOMM*%
%FSLAX34Y34*%
%LPD*%
%AMOC8*
5,1,8,0,0,1.08239X$1,22.5*%
G01*
%ADD10R,0.500000X0.500000*%
%ADD11R,0.400000X0.500000*%
%ADD12R,2.610000X1.560000*%
%ADD13R,1.500000X0.900000*%
%ADD14R,0.800000X2.008000*%
%ADD15R,1.450000X2.000000*%
%ADD16C,0.222250*%
%ADD17C,0.600000*%


D10*
X341750Y229980D03*
D11*
X349250Y229980D03*
D10*
X356750Y229980D03*
X356750Y211980D03*
D11*
X349250Y211980D03*
D10*
X341750Y211980D03*
D12*
X400900Y287400D03*
X526900Y287400D03*
X526900Y118400D03*
X400900Y118400D03*
D13*
X376900Y267100D03*
X376900Y254400D03*
X376900Y241700D03*
X376900Y229000D03*
X376900Y216300D03*
X376900Y203600D03*
D14*
X215286Y185040D03*
X226286Y185040D03*
X237286Y185040D03*
X248286Y185040D03*
X259286Y185040D03*
X270286Y185040D03*
X281286Y185040D03*
X292286Y185040D03*
D15*
X177250Y161580D03*
X317290Y161580D03*
X177250Y243564D03*
X317290Y243564D03*
D16*
X-95790Y180880D02*
X-95790Y174212D01*
X-95790Y180880D02*
X-89122Y180880D01*
X-89122Y174212D01*
X-95790Y174212D01*
X-95790Y176434D02*
X-89122Y176434D01*
X-89122Y178656D02*
X-95790Y178656D01*
X-95790Y180878D02*
X-89122Y180878D01*
X-95790Y165640D02*
X-95790Y158972D01*
X-95790Y165640D02*
X-89122Y165640D01*
X-89122Y158972D01*
X-95790Y158972D01*
X-95790Y161194D02*
X-89122Y161194D01*
X-89122Y163416D02*
X-95790Y163416D01*
X-95790Y165638D02*
X-89122Y165638D01*
D17*
X12458Y83566D02*
X22458Y83566D01*
X22458Y70866D02*
X12458Y70866D01*
X12458Y58166D02*
X22458Y58166D01*
X22458Y45466D02*
X12458Y45466D01*
X-49542Y45466D02*
X-59542Y45466D01*
X-59542Y58166D02*
X-49542Y58166D01*
X-49542Y70866D02*
X-59542Y70866D01*
X-59542Y83566D02*
X-49542Y83566D01*
M02*
