G04 EAGLE Gerber X2 export*
%TF.Part,Single*%
%TF.FileFunction,Paste,Top*%
%TF.FilePolarity,Positive*%
%TF.GenerationSoftware,Autodesk,EAGLE,8.6.3*%
%TF.CreationDate,2023-08-23T14:46:16Z*%
G75*
%MOMM*%
%FSLAX34Y34*%
%LPD*%
%AMOC8*
5,1,8,0,0,1.08239X$1,22.5*%
G01*
%ADD10C,0.381000*%
%ADD11C,0.508000*%
%ADD12C,0.317500*%
%ADD13C,0.222250*%
%ADD14C,0.190500*%
%ADD15R,1.200000X0.550000*%
%ADD16R,1.016000X1.143000*%
%ADD17R,1.600000X0.800000*%
%ADD18R,0.800000X1.600000*%
%ADD19R,1.500000X1.500000*%
%ADD20R,3.000000X3.000000*%
%ADD21R,0.300000X0.650000*%
%ADD22R,1.375000X0.800000*%
%ADD23R,1.200000X2.500000*%
%ADD24R,0.900000X0.800000*%
%ADD25R,0.500000X0.500000*%
%ADD26R,0.400000X0.500000*%
%ADD27R,2.400000X1.800000*%
%ADD28R,1.200000X1.200000*%
%ADD29R,1.219200X2.235200*%
%ADD30R,3.600000X2.200000*%
%ADD31R,1.780000X1.780000*%
%ADD32C,0.067500*%
%ADD33R,1.380000X0.450000*%
%ADD34R,1.550000X1.425000*%
%ADD35R,1.900000X1.800000*%
%ADD36R,1.900000X1.000000*%
%ADD37R,1.300000X1.650000*%
%ADD38R,0.380000X0.400000*%
%ADD39R,0.260000X0.790000*%
%ADD40R,0.790000X0.260000*%
%ADD41R,1.400000X1.200000*%
%ADD42R,1.000000X0.500000*%
%ADD43R,0.400000X0.380000*%
%ADD44R,0.600000X0.700000*%
%ADD45R,1.400000X0.950000*%
%ADD46R,0.950000X1.400000*%
%ADD47R,1.470000X1.150000*%


D10*
X454533Y343535D02*
X435483Y343535D01*
X435483Y347345D01*
X454533Y347345D01*
X454533Y343535D01*
X454533Y347344D02*
X435483Y347344D01*
X435483Y315595D02*
X454533Y315595D01*
X435483Y315595D02*
X435483Y319405D01*
X454533Y319405D01*
X454533Y315595D01*
X454533Y319404D02*
X435483Y319404D01*
D11*
X457708Y334010D02*
X462788Y334010D01*
X462788Y328930D01*
X457708Y328930D01*
X457708Y334010D01*
X457708Y334009D02*
X462788Y334009D01*
X432308Y334010D02*
X427228Y334010D01*
X432308Y334010D02*
X432308Y328930D01*
X427228Y328930D01*
X427228Y334010D01*
X427228Y334009D02*
X432308Y334009D01*
D12*
X394145Y329882D02*
X390969Y329882D01*
X390969Y333058D01*
X394145Y333058D01*
X394145Y329882D01*
X394145Y333056D02*
X390969Y333056D01*
X399859Y329882D02*
X403035Y329882D01*
X399859Y329882D02*
X399859Y333058D01*
X403035Y333058D01*
X403035Y329882D01*
X403035Y333056D02*
X399859Y333056D01*
X394145Y314896D02*
X390969Y314896D01*
X390969Y318072D01*
X394145Y318072D01*
X394145Y314896D01*
X394145Y318070D02*
X390969Y318070D01*
X399859Y314896D02*
X403035Y314896D01*
X399859Y314896D02*
X399859Y318072D01*
X403035Y318072D01*
X403035Y314896D01*
X403035Y318070D02*
X399859Y318070D01*
D13*
X522446Y185896D02*
X529114Y185896D01*
X522446Y185896D02*
X522446Y192564D01*
X529114Y192564D01*
X529114Y185896D01*
X529114Y188118D02*
X522446Y188118D01*
X522446Y190340D02*
X529114Y190340D01*
X529114Y192562D02*
X522446Y192562D01*
X537686Y185896D02*
X544354Y185896D01*
X537686Y185896D02*
X537686Y192564D01*
X544354Y192564D01*
X544354Y185896D01*
X544354Y188118D02*
X537686Y188118D01*
X537686Y190340D02*
X544354Y190340D01*
X544354Y192562D02*
X537686Y192562D01*
X529114Y159226D02*
X522446Y159226D01*
X522446Y165894D01*
X529114Y165894D01*
X529114Y159226D01*
X529114Y161448D02*
X522446Y161448D01*
X522446Y163670D02*
X529114Y163670D01*
X529114Y165892D02*
X522446Y165892D01*
X537686Y159226D02*
X544354Y159226D01*
X537686Y159226D02*
X537686Y165894D01*
X544354Y165894D01*
X544354Y159226D01*
X544354Y161448D02*
X537686Y161448D01*
X537686Y163670D02*
X544354Y163670D01*
X544354Y165892D02*
X537686Y165892D01*
D14*
X192088Y378143D02*
X186372Y378143D01*
X192088Y378143D02*
X192088Y371157D01*
X186372Y371157D01*
X186372Y378143D01*
X186372Y373061D02*
X192088Y373061D01*
X192088Y374965D02*
X186372Y374965D01*
X186372Y376869D02*
X192088Y376869D01*
X176848Y378143D02*
X171132Y378143D01*
X176848Y378143D02*
X176848Y371157D01*
X171132Y371157D01*
X171132Y378143D01*
X171132Y373061D02*
X176848Y373061D01*
X176848Y374965D02*
X171132Y374965D01*
X171132Y376869D02*
X176848Y376869D01*
D13*
X177324Y357346D02*
X170656Y357346D01*
X170656Y364014D01*
X177324Y364014D01*
X177324Y357346D01*
X177324Y359568D02*
X170656Y359568D01*
X170656Y361790D02*
X177324Y361790D01*
X177324Y364012D02*
X170656Y364012D01*
X185896Y357346D02*
X192564Y357346D01*
X185896Y357346D02*
X185896Y364014D01*
X192564Y364014D01*
X192564Y357346D01*
X192564Y359568D02*
X185896Y359568D01*
X185896Y361790D02*
X192564Y361790D01*
X192564Y364012D02*
X185896Y364012D01*
X237966Y339884D02*
X237966Y333216D01*
X237966Y339884D02*
X244634Y339884D01*
X244634Y333216D01*
X237966Y333216D01*
X237966Y335438D02*
X244634Y335438D01*
X244634Y337660D02*
X237966Y337660D01*
X237966Y339882D02*
X244634Y339882D01*
X237966Y324644D02*
X237966Y317976D01*
X237966Y324644D02*
X244634Y324644D01*
X244634Y317976D01*
X237966Y317976D01*
X237966Y320198D02*
X244634Y320198D01*
X244634Y322420D02*
X237966Y322420D01*
X237966Y324642D02*
X244634Y324642D01*
D15*
X174960Y348590D03*
X174960Y339090D03*
X174960Y329590D03*
X200960Y329590D03*
X200960Y348590D03*
D13*
X212566Y351314D02*
X212566Y344646D01*
X212566Y351314D02*
X219234Y351314D01*
X219234Y344646D01*
X212566Y344646D01*
X212566Y346868D02*
X219234Y346868D01*
X219234Y349090D02*
X212566Y349090D01*
X212566Y351312D02*
X219234Y351312D01*
X212566Y336074D02*
X212566Y329406D01*
X212566Y336074D02*
X219234Y336074D01*
X219234Y329406D01*
X212566Y329406D01*
X212566Y331628D02*
X219234Y331628D01*
X219234Y333850D02*
X212566Y333850D01*
X212566Y336072D02*
X219234Y336072D01*
X493236Y159226D02*
X499904Y159226D01*
X493236Y159226D02*
X493236Y165894D01*
X499904Y165894D01*
X499904Y159226D01*
X499904Y161448D02*
X493236Y161448D01*
X493236Y163670D02*
X499904Y163670D01*
X499904Y165892D02*
X493236Y165892D01*
X508476Y159226D02*
X515144Y159226D01*
X508476Y159226D02*
X508476Y165894D01*
X515144Y165894D01*
X515144Y159226D01*
X515144Y161448D02*
X508476Y161448D01*
X508476Y163670D02*
X515144Y163670D01*
X515144Y165892D02*
X508476Y165892D01*
X499904Y185896D02*
X493236Y185896D01*
X493236Y192564D01*
X499904Y192564D01*
X499904Y185896D01*
X499904Y188118D02*
X493236Y188118D01*
X493236Y190340D02*
X499904Y190340D01*
X499904Y192562D02*
X493236Y192562D01*
X508476Y185896D02*
X515144Y185896D01*
X508476Y185896D02*
X508476Y192564D01*
X515144Y192564D01*
X515144Y185896D01*
X515144Y188118D02*
X508476Y188118D01*
X508476Y190340D02*
X515144Y190340D01*
X515144Y192562D02*
X508476Y192562D01*
X417354Y312896D02*
X417354Y319564D01*
X417354Y312896D02*
X410686Y312896D01*
X410686Y319564D01*
X417354Y319564D01*
X417354Y315118D02*
X410686Y315118D01*
X410686Y317340D02*
X417354Y317340D01*
X417354Y319562D02*
X410686Y319562D01*
X417354Y328136D02*
X417354Y334804D01*
X417354Y328136D02*
X410686Y328136D01*
X410686Y334804D01*
X417354Y334804D01*
X417354Y330358D02*
X410686Y330358D01*
X410686Y332580D02*
X417354Y332580D01*
X417354Y334802D02*
X410686Y334802D01*
X150336Y385286D02*
X150336Y391954D01*
X157004Y391954D01*
X157004Y385286D01*
X150336Y385286D01*
X150336Y387508D02*
X157004Y387508D01*
X157004Y389730D02*
X150336Y389730D01*
X150336Y391952D02*
X157004Y391952D01*
X150336Y376714D02*
X150336Y370046D01*
X150336Y376714D02*
X157004Y376714D01*
X157004Y370046D01*
X150336Y370046D01*
X150336Y372268D02*
X157004Y372268D01*
X157004Y374490D02*
X150336Y374490D01*
X150336Y376712D02*
X157004Y376712D01*
X185896Y391954D02*
X192564Y391954D01*
X192564Y385286D01*
X185896Y385286D01*
X185896Y391954D01*
X185896Y387508D02*
X192564Y387508D01*
X192564Y389730D02*
X185896Y389730D01*
X185896Y391952D02*
X192564Y391952D01*
X177324Y391954D02*
X170656Y391954D01*
X177324Y391954D02*
X177324Y385286D01*
X170656Y385286D01*
X170656Y391954D01*
X170656Y387508D02*
X177324Y387508D01*
X177324Y389730D02*
X170656Y389730D01*
X170656Y391952D02*
X177324Y391952D01*
D10*
X516255Y133985D02*
X535305Y133985D01*
X516255Y133985D02*
X516255Y137795D01*
X535305Y137795D01*
X535305Y133985D01*
X535305Y137794D02*
X516255Y137794D01*
X516255Y106045D02*
X535305Y106045D01*
X516255Y106045D02*
X516255Y109855D01*
X535305Y109855D01*
X535305Y106045D01*
X535305Y109854D02*
X516255Y109854D01*
D11*
X538480Y124460D02*
X543560Y124460D01*
X543560Y119380D01*
X538480Y119380D01*
X538480Y124460D01*
X538480Y124459D02*
X543560Y124459D01*
X513080Y124460D02*
X508000Y124460D01*
X513080Y124460D02*
X513080Y119380D01*
X508000Y119380D01*
X508000Y124460D01*
X508000Y124459D02*
X513080Y124459D01*
D16*
X168148Y248666D03*
X177648Y228346D03*
X158648Y228346D03*
D13*
X317976Y314166D02*
X324644Y314166D01*
X317976Y314166D02*
X317976Y320834D01*
X324644Y320834D01*
X324644Y314166D01*
X324644Y316388D02*
X317976Y316388D01*
X317976Y318610D02*
X324644Y318610D01*
X324644Y320832D02*
X317976Y320832D01*
X333216Y314166D02*
X339884Y314166D01*
X333216Y314166D02*
X333216Y320834D01*
X339884Y320834D01*
X339884Y314166D01*
X339884Y316388D02*
X333216Y316388D01*
X333216Y318610D02*
X339884Y318610D01*
X339884Y320832D02*
X333216Y320832D01*
X491966Y125254D02*
X491966Y118586D01*
X491966Y125254D02*
X498634Y125254D01*
X498634Y118586D01*
X491966Y118586D01*
X491966Y120808D02*
X498634Y120808D01*
X498634Y123030D02*
X491966Y123030D01*
X491966Y125252D02*
X498634Y125252D01*
X491966Y110014D02*
X491966Y103346D01*
X491966Y110014D02*
X498634Y110014D01*
X498634Y103346D01*
X491966Y103346D01*
X491966Y105568D02*
X498634Y105568D01*
X498634Y107790D02*
X491966Y107790D01*
X491966Y110012D02*
X498634Y110012D01*
X290354Y317976D02*
X290354Y324644D01*
X290354Y317976D02*
X283686Y317976D01*
X283686Y324644D01*
X290354Y324644D01*
X290354Y320198D02*
X283686Y320198D01*
X283686Y322420D02*
X290354Y322420D01*
X290354Y324642D02*
X283686Y324642D01*
X290354Y333216D02*
X290354Y339884D01*
X290354Y333216D02*
X283686Y333216D01*
X283686Y339884D01*
X290354Y339884D01*
X290354Y335438D02*
X283686Y335438D01*
X283686Y337660D02*
X290354Y337660D01*
X290354Y339882D02*
X283686Y339882D01*
X268446Y339884D02*
X268446Y333216D01*
X268446Y339884D02*
X275114Y339884D01*
X275114Y333216D01*
X268446Y333216D01*
X268446Y335438D02*
X275114Y335438D01*
X275114Y337660D02*
X268446Y337660D01*
X268446Y339882D02*
X275114Y339882D01*
X268446Y324644D02*
X268446Y317976D01*
X268446Y324644D02*
X275114Y324644D01*
X275114Y317976D01*
X268446Y317976D01*
X268446Y320198D02*
X275114Y320198D01*
X275114Y322420D02*
X268446Y322420D01*
X268446Y324642D02*
X275114Y324642D01*
D17*
X284460Y278000D03*
X284460Y266000D03*
X284460Y254000D03*
X284460Y242000D03*
X284460Y230000D03*
X284460Y218000D03*
X284460Y206000D03*
X284460Y194000D03*
X284460Y182000D03*
X284460Y170000D03*
X284460Y158000D03*
X284460Y146000D03*
X284460Y134000D03*
X284460Y122000D03*
D18*
X306460Y105000D03*
X318460Y105000D03*
X330460Y105000D03*
X342460Y105000D03*
X354460Y105000D03*
X366460Y105000D03*
X378460Y105000D03*
X390460Y105000D03*
X402460Y105000D03*
X414460Y105000D03*
X426460Y105000D03*
X438460Y105000D03*
X450460Y105000D03*
D17*
X472460Y122000D03*
X472460Y134000D03*
X472460Y146000D03*
X472460Y158000D03*
X472460Y170000D03*
X472460Y182000D03*
X472460Y194000D03*
X472460Y206000D03*
X472460Y218000D03*
X472460Y230000D03*
X472460Y242000D03*
X472460Y254000D03*
X472460Y266000D03*
X472460Y278000D03*
D18*
X450460Y295000D03*
X438460Y295000D03*
X426460Y295000D03*
X414460Y295000D03*
X402460Y295000D03*
X390460Y295000D03*
X378460Y295000D03*
X366460Y295000D03*
X354460Y295000D03*
X342460Y295000D03*
X330460Y295000D03*
X318460Y295000D03*
X306460Y295000D03*
D19*
X359460Y181000D03*
D20*
X336460Y247000D03*
D21*
X96930Y272000D03*
X103430Y272000D03*
X109930Y272000D03*
X116430Y272000D03*
X116430Y299500D03*
X109930Y299500D03*
X103430Y299500D03*
X96930Y299500D03*
D22*
X106680Y285750D03*
D13*
X137954Y284004D02*
X137954Y277336D01*
X131286Y277336D01*
X131286Y284004D01*
X137954Y284004D01*
X137954Y279558D02*
X131286Y279558D01*
X131286Y281780D02*
X137954Y281780D01*
X137954Y284002D02*
X131286Y284002D01*
X137954Y292576D02*
X137954Y299244D01*
X137954Y292576D02*
X131286Y292576D01*
X131286Y299244D01*
X137954Y299244D01*
X137954Y294798D02*
X131286Y294798D01*
X131286Y297020D02*
X137954Y297020D01*
X137954Y299242D02*
X131286Y299242D01*
X85376Y256762D02*
X78708Y256762D01*
X78708Y263430D01*
X85376Y263430D01*
X85376Y256762D01*
X85376Y258984D02*
X78708Y258984D01*
X78708Y261206D02*
X85376Y261206D01*
X85376Y263428D02*
X78708Y263428D01*
X93948Y256762D02*
X100616Y256762D01*
X93948Y256762D02*
X93948Y263430D01*
X100616Y263430D01*
X100616Y256762D01*
X100616Y258984D02*
X93948Y258984D01*
X93948Y261206D02*
X100616Y261206D01*
X100616Y263428D02*
X93948Y263428D01*
X259874Y317976D02*
X259874Y324644D01*
X259874Y317976D02*
X253206Y317976D01*
X253206Y324644D01*
X259874Y324644D01*
X259874Y320198D02*
X253206Y320198D01*
X253206Y322420D02*
X259874Y322420D01*
X259874Y324642D02*
X253206Y324642D01*
X259874Y333216D02*
X259874Y339884D01*
X259874Y333216D02*
X253206Y333216D01*
X253206Y339884D01*
X259874Y339884D01*
X259874Y335438D02*
X253206Y335438D01*
X253206Y337660D02*
X259874Y337660D01*
X259874Y339882D02*
X253206Y339882D01*
X-85630Y183420D02*
X-85630Y176752D01*
X-85630Y183420D02*
X-78962Y183420D01*
X-78962Y176752D01*
X-85630Y176752D01*
X-85630Y178974D02*
X-78962Y178974D01*
X-78962Y181196D02*
X-85630Y181196D01*
X-85630Y183418D02*
X-78962Y183418D01*
X-85630Y168180D02*
X-85630Y161512D01*
X-85630Y168180D02*
X-78962Y168180D01*
X-78962Y161512D01*
X-85630Y161512D01*
X-85630Y163734D02*
X-78962Y163734D01*
X-78962Y165956D02*
X-85630Y165956D01*
X-85630Y168178D02*
X-78962Y168178D01*
X234156Y238728D02*
X240824Y238728D01*
X234156Y238728D02*
X234156Y245396D01*
X240824Y245396D01*
X240824Y238728D01*
X240824Y240950D02*
X234156Y240950D01*
X234156Y243172D02*
X240824Y243172D01*
X240824Y245394D02*
X234156Y245394D01*
X249396Y238728D02*
X256064Y238728D01*
X249396Y238728D02*
X249396Y245396D01*
X256064Y245396D01*
X256064Y238728D01*
X256064Y240950D02*
X249396Y240950D01*
X249396Y243172D02*
X256064Y243172D01*
X256064Y245394D02*
X249396Y245394D01*
X240824Y225266D02*
X234156Y225266D01*
X234156Y231934D01*
X240824Y231934D01*
X240824Y225266D01*
X240824Y227488D02*
X234156Y227488D01*
X234156Y229710D02*
X240824Y229710D01*
X240824Y231932D02*
X234156Y231932D01*
X249396Y225266D02*
X256064Y225266D01*
X249396Y225266D02*
X249396Y231934D01*
X256064Y231934D01*
X256064Y225266D01*
X256064Y227488D02*
X249396Y227488D01*
X249396Y229710D02*
X256064Y229710D01*
X256064Y231932D02*
X249396Y231932D01*
D23*
X220990Y205740D03*
X253990Y205740D03*
D13*
X-92932Y168180D02*
X-92932Y161512D01*
X-99600Y161512D01*
X-99600Y168180D01*
X-92932Y168180D01*
X-92932Y163734D02*
X-99600Y163734D01*
X-99600Y165956D02*
X-92932Y165956D01*
X-92932Y168178D02*
X-99600Y168178D01*
X-92932Y176752D02*
X-92932Y183420D01*
X-92932Y176752D02*
X-99600Y176752D01*
X-99600Y183420D01*
X-92932Y183420D01*
X-92932Y178974D02*
X-99600Y178974D01*
X-99600Y181196D02*
X-92932Y181196D01*
X-92932Y183418D02*
X-99600Y183418D01*
D24*
X96680Y339700D03*
X96680Y320700D03*
X117680Y330200D03*
D13*
X152876Y299244D02*
X152876Y292576D01*
X152876Y299244D02*
X159544Y299244D01*
X159544Y292576D01*
X152876Y292576D01*
X152876Y294798D02*
X159544Y294798D01*
X159544Y297020D02*
X152876Y297020D01*
X152876Y299242D02*
X159544Y299242D01*
X152876Y284004D02*
X152876Y277336D01*
X152876Y284004D02*
X159544Y284004D01*
X159544Y277336D01*
X152876Y277336D01*
X152876Y279558D02*
X159544Y279558D01*
X159544Y281780D02*
X152876Y281780D01*
X152876Y284002D02*
X159544Y284002D01*
X147796Y333216D02*
X147796Y339884D01*
X154464Y339884D01*
X154464Y333216D01*
X147796Y333216D01*
X147796Y335438D02*
X154464Y335438D01*
X154464Y337660D02*
X147796Y337660D01*
X147796Y339882D02*
X154464Y339882D01*
X147796Y324644D02*
X147796Y317976D01*
X147796Y324644D02*
X154464Y324644D01*
X154464Y317976D01*
X147796Y317976D01*
X147796Y320198D02*
X154464Y320198D01*
X154464Y322420D02*
X147796Y322420D01*
X147796Y324642D02*
X154464Y324642D01*
X128746Y333216D02*
X128746Y339884D01*
X135414Y339884D01*
X135414Y333216D01*
X128746Y333216D01*
X128746Y335438D02*
X135414Y335438D01*
X135414Y337660D02*
X128746Y337660D01*
X128746Y339882D02*
X135414Y339882D01*
X128746Y324644D02*
X128746Y317976D01*
X128746Y324644D02*
X135414Y324644D01*
X135414Y317976D01*
X128746Y317976D01*
X128746Y320198D02*
X135414Y320198D01*
X135414Y322420D02*
X128746Y322420D01*
X128746Y324642D02*
X135414Y324642D01*
D25*
X248800Y134730D03*
D26*
X241300Y134730D03*
D25*
X233800Y134730D03*
X233800Y116730D03*
D26*
X241300Y116730D03*
D25*
X248800Y116730D03*
D27*
X198120Y255594D03*
X198120Y296094D03*
X232410Y301174D03*
X232410Y260674D03*
D28*
X174666Y196088D03*
X195666Y196088D03*
D13*
X179801Y213646D02*
X173133Y213646D01*
X179801Y213646D02*
X179801Y206978D01*
X173133Y206978D01*
X173133Y213646D01*
X173133Y209200D02*
X179801Y209200D01*
X179801Y211422D02*
X173133Y211422D01*
X173133Y213644D02*
X179801Y213644D01*
X164561Y213646D02*
X157893Y213646D01*
X164561Y213646D02*
X164561Y206978D01*
X157893Y206978D01*
X157893Y213646D01*
X157893Y209200D02*
X164561Y209200D01*
X164561Y211422D02*
X157893Y211422D01*
X157893Y213644D02*
X164561Y213644D01*
D29*
X-37592Y19558D03*
X-14478Y19558D03*
X8636Y19558D03*
D30*
X-14478Y81536D03*
D13*
X-61500Y44228D02*
X-61500Y37560D01*
X-61500Y44228D02*
X-54832Y44228D01*
X-54832Y37560D01*
X-61500Y37560D01*
X-61500Y39782D02*
X-54832Y39782D01*
X-54832Y42004D02*
X-61500Y42004D01*
X-61500Y44226D02*
X-54832Y44226D01*
X-61500Y28988D02*
X-61500Y22320D01*
X-61500Y28988D02*
X-54832Y28988D01*
X-54832Y22320D01*
X-61500Y22320D01*
X-61500Y24542D02*
X-54832Y24542D01*
X-54832Y26764D02*
X-61500Y26764D01*
X-61500Y28986D02*
X-54832Y28986D01*
X25368Y59150D02*
X25368Y65818D01*
X32036Y65818D01*
X32036Y59150D01*
X25368Y59150D01*
X25368Y61372D02*
X32036Y61372D01*
X32036Y63594D02*
X25368Y63594D01*
X25368Y65816D02*
X32036Y65816D01*
X25368Y50578D02*
X25368Y43910D01*
X25368Y50578D02*
X32036Y50578D01*
X32036Y43910D01*
X25368Y43910D01*
X25368Y46132D02*
X32036Y46132D01*
X32036Y48354D02*
X25368Y48354D01*
X25368Y50576D02*
X32036Y50576D01*
D28*
X-56982Y163068D03*
X-35982Y163068D03*
D13*
X-50260Y179800D02*
X-56928Y179800D01*
X-56928Y186468D01*
X-50260Y186468D01*
X-50260Y179800D01*
X-50260Y182022D02*
X-56928Y182022D01*
X-56928Y184244D02*
X-50260Y184244D01*
X-50260Y186466D02*
X-56928Y186466D01*
X-41688Y179800D02*
X-35020Y179800D01*
X-41688Y179800D02*
X-41688Y186468D01*
X-35020Y186468D01*
X-35020Y179800D01*
X-35020Y182022D02*
X-41688Y182022D01*
X-41688Y184244D02*
X-35020Y184244D01*
X-35020Y186466D02*
X-41688Y186466D01*
D31*
X85628Y147858D03*
X85628Y119858D03*
X57628Y147858D03*
X57628Y119858D03*
D32*
X41341Y160345D02*
X33315Y160345D01*
X33315Y162371D01*
X41341Y162371D01*
X41341Y160345D01*
X41341Y161019D02*
X33315Y161019D01*
X33315Y161693D02*
X41341Y161693D01*
X41341Y162367D02*
X33315Y162367D01*
X33315Y155345D02*
X41341Y155345D01*
X33315Y155345D02*
X33315Y157371D01*
X41341Y157371D01*
X41341Y155345D01*
X41341Y156019D02*
X33315Y156019D01*
X33315Y156693D02*
X41341Y156693D01*
X41341Y157367D02*
X33315Y157367D01*
X33315Y150345D02*
X41341Y150345D01*
X33315Y150345D02*
X33315Y152371D01*
X41341Y152371D01*
X41341Y150345D01*
X41341Y151019D02*
X33315Y151019D01*
X33315Y151693D02*
X41341Y151693D01*
X41341Y152367D02*
X33315Y152367D01*
X33315Y145345D02*
X41341Y145345D01*
X33315Y145345D02*
X33315Y147371D01*
X41341Y147371D01*
X41341Y145345D01*
X41341Y146019D02*
X33315Y146019D01*
X33315Y146693D02*
X41341Y146693D01*
X41341Y147367D02*
X33315Y147367D01*
X33315Y140345D02*
X41341Y140345D01*
X33315Y140345D02*
X33315Y142371D01*
X41341Y142371D01*
X41341Y140345D01*
X41341Y141019D02*
X33315Y141019D01*
X33315Y141693D02*
X41341Y141693D01*
X41341Y142367D02*
X33315Y142367D01*
X33315Y135345D02*
X41341Y135345D01*
X33315Y135345D02*
X33315Y137371D01*
X41341Y137371D01*
X41341Y135345D01*
X41341Y136019D02*
X33315Y136019D01*
X33315Y136693D02*
X41341Y136693D01*
X41341Y137367D02*
X33315Y137367D01*
X33315Y130345D02*
X41341Y130345D01*
X33315Y130345D02*
X33315Y132371D01*
X41341Y132371D01*
X41341Y130345D01*
X41341Y131019D02*
X33315Y131019D01*
X33315Y131693D02*
X41341Y131693D01*
X41341Y132367D02*
X33315Y132367D01*
X33315Y125345D02*
X41341Y125345D01*
X33315Y125345D02*
X33315Y127371D01*
X41341Y127371D01*
X41341Y125345D01*
X41341Y126019D02*
X33315Y126019D01*
X33315Y126693D02*
X41341Y126693D01*
X41341Y127367D02*
X33315Y127367D01*
X33315Y120345D02*
X41341Y120345D01*
X33315Y120345D02*
X33315Y122371D01*
X41341Y122371D01*
X41341Y120345D01*
X41341Y121019D02*
X33315Y121019D01*
X33315Y121693D02*
X41341Y121693D01*
X41341Y122367D02*
X33315Y122367D01*
X33315Y115345D02*
X41341Y115345D01*
X33315Y115345D02*
X33315Y117371D01*
X41341Y117371D01*
X41341Y115345D01*
X41341Y116019D02*
X33315Y116019D01*
X33315Y116693D02*
X41341Y116693D01*
X41341Y117367D02*
X33315Y117367D01*
X33315Y110345D02*
X41341Y110345D01*
X33315Y110345D02*
X33315Y112371D01*
X41341Y112371D01*
X41341Y110345D01*
X41341Y111019D02*
X33315Y111019D01*
X33315Y111693D02*
X41341Y111693D01*
X41341Y112367D02*
X33315Y112367D01*
X33315Y105345D02*
X41341Y105345D01*
X33315Y105345D02*
X33315Y107371D01*
X41341Y107371D01*
X41341Y105345D01*
X41341Y106019D02*
X33315Y106019D01*
X33315Y106693D02*
X41341Y106693D01*
X41341Y107367D02*
X33315Y107367D01*
X101915Y105345D02*
X109941Y105345D01*
X101915Y105345D02*
X101915Y107371D01*
X109941Y107371D01*
X109941Y105345D01*
X109941Y106019D02*
X101915Y106019D01*
X101915Y106693D02*
X109941Y106693D01*
X109941Y107367D02*
X101915Y107367D01*
X101915Y110345D02*
X109941Y110345D01*
X101915Y110345D02*
X101915Y112371D01*
X109941Y112371D01*
X109941Y110345D01*
X109941Y111019D02*
X101915Y111019D01*
X101915Y111693D02*
X109941Y111693D01*
X109941Y112367D02*
X101915Y112367D01*
X101915Y115345D02*
X109941Y115345D01*
X101915Y115345D02*
X101915Y117371D01*
X109941Y117371D01*
X109941Y115345D01*
X109941Y116019D02*
X101915Y116019D01*
X101915Y116693D02*
X109941Y116693D01*
X109941Y117367D02*
X101915Y117367D01*
X101915Y120345D02*
X109941Y120345D01*
X101915Y120345D02*
X101915Y122371D01*
X109941Y122371D01*
X109941Y120345D01*
X109941Y121019D02*
X101915Y121019D01*
X101915Y121693D02*
X109941Y121693D01*
X109941Y122367D02*
X101915Y122367D01*
X101915Y125345D02*
X109941Y125345D01*
X101915Y125345D02*
X101915Y127371D01*
X109941Y127371D01*
X109941Y125345D01*
X109941Y126019D02*
X101915Y126019D01*
X101915Y126693D02*
X109941Y126693D01*
X109941Y127367D02*
X101915Y127367D01*
X101915Y130345D02*
X109941Y130345D01*
X101915Y130345D02*
X101915Y132371D01*
X109941Y132371D01*
X109941Y130345D01*
X109941Y131019D02*
X101915Y131019D01*
X101915Y131693D02*
X109941Y131693D01*
X109941Y132367D02*
X101915Y132367D01*
X101915Y135345D02*
X109941Y135345D01*
X101915Y135345D02*
X101915Y137371D01*
X109941Y137371D01*
X109941Y135345D01*
X109941Y136019D02*
X101915Y136019D01*
X101915Y136693D02*
X109941Y136693D01*
X109941Y137367D02*
X101915Y137367D01*
X101915Y140345D02*
X109941Y140345D01*
X101915Y140345D02*
X101915Y142371D01*
X109941Y142371D01*
X109941Y140345D01*
X109941Y141019D02*
X101915Y141019D01*
X101915Y141693D02*
X109941Y141693D01*
X109941Y142367D02*
X101915Y142367D01*
X101915Y145345D02*
X109941Y145345D01*
X101915Y145345D02*
X101915Y147371D01*
X109941Y147371D01*
X109941Y145345D01*
X109941Y146019D02*
X101915Y146019D01*
X101915Y146693D02*
X109941Y146693D01*
X109941Y147367D02*
X101915Y147367D01*
X101915Y150345D02*
X109941Y150345D01*
X101915Y150345D02*
X101915Y152371D01*
X109941Y152371D01*
X109941Y150345D01*
X109941Y151019D02*
X101915Y151019D01*
X101915Y151693D02*
X109941Y151693D01*
X109941Y152367D02*
X101915Y152367D01*
X101915Y155345D02*
X109941Y155345D01*
X101915Y155345D02*
X101915Y157371D01*
X109941Y157371D01*
X109941Y155345D01*
X109941Y156019D02*
X101915Y156019D01*
X101915Y156693D02*
X109941Y156693D01*
X109941Y157367D02*
X101915Y157367D01*
X101915Y160345D02*
X109941Y160345D01*
X101915Y160345D02*
X101915Y162371D01*
X109941Y162371D01*
X109941Y160345D01*
X109941Y161019D02*
X101915Y161019D01*
X101915Y161693D02*
X109941Y161693D01*
X109941Y162367D02*
X101915Y162367D01*
X98115Y164145D02*
X98115Y172171D01*
X100141Y172171D01*
X100141Y164145D01*
X98115Y164145D01*
X98115Y164819D02*
X100141Y164819D01*
X100141Y165493D02*
X98115Y165493D01*
X98115Y166167D02*
X100141Y166167D01*
X100141Y166841D02*
X98115Y166841D01*
X98115Y167515D02*
X100141Y167515D01*
X100141Y168189D02*
X98115Y168189D01*
X98115Y168863D02*
X100141Y168863D01*
X100141Y169537D02*
X98115Y169537D01*
X98115Y170211D02*
X100141Y170211D01*
X100141Y170885D02*
X98115Y170885D01*
X98115Y171559D02*
X100141Y171559D01*
X93115Y172171D02*
X93115Y164145D01*
X93115Y172171D02*
X95141Y172171D01*
X95141Y164145D01*
X93115Y164145D01*
X93115Y164819D02*
X95141Y164819D01*
X95141Y165493D02*
X93115Y165493D01*
X93115Y166167D02*
X95141Y166167D01*
X95141Y166841D02*
X93115Y166841D01*
X93115Y167515D02*
X95141Y167515D01*
X95141Y168189D02*
X93115Y168189D01*
X93115Y168863D02*
X95141Y168863D01*
X95141Y169537D02*
X93115Y169537D01*
X93115Y170211D02*
X95141Y170211D01*
X95141Y170885D02*
X93115Y170885D01*
X93115Y171559D02*
X95141Y171559D01*
X88115Y172171D02*
X88115Y164145D01*
X88115Y172171D02*
X90141Y172171D01*
X90141Y164145D01*
X88115Y164145D01*
X88115Y164819D02*
X90141Y164819D01*
X90141Y165493D02*
X88115Y165493D01*
X88115Y166167D02*
X90141Y166167D01*
X90141Y166841D02*
X88115Y166841D01*
X88115Y167515D02*
X90141Y167515D01*
X90141Y168189D02*
X88115Y168189D01*
X88115Y168863D02*
X90141Y168863D01*
X90141Y169537D02*
X88115Y169537D01*
X88115Y170211D02*
X90141Y170211D01*
X90141Y170885D02*
X88115Y170885D01*
X88115Y171559D02*
X90141Y171559D01*
X83115Y172171D02*
X83115Y164145D01*
X83115Y172171D02*
X85141Y172171D01*
X85141Y164145D01*
X83115Y164145D01*
X83115Y164819D02*
X85141Y164819D01*
X85141Y165493D02*
X83115Y165493D01*
X83115Y166167D02*
X85141Y166167D01*
X85141Y166841D02*
X83115Y166841D01*
X83115Y167515D02*
X85141Y167515D01*
X85141Y168189D02*
X83115Y168189D01*
X83115Y168863D02*
X85141Y168863D01*
X85141Y169537D02*
X83115Y169537D01*
X83115Y170211D02*
X85141Y170211D01*
X85141Y170885D02*
X83115Y170885D01*
X83115Y171559D02*
X85141Y171559D01*
X78115Y172171D02*
X78115Y164145D01*
X78115Y172171D02*
X80141Y172171D01*
X80141Y164145D01*
X78115Y164145D01*
X78115Y164819D02*
X80141Y164819D01*
X80141Y165493D02*
X78115Y165493D01*
X78115Y166167D02*
X80141Y166167D01*
X80141Y166841D02*
X78115Y166841D01*
X78115Y167515D02*
X80141Y167515D01*
X80141Y168189D02*
X78115Y168189D01*
X78115Y168863D02*
X80141Y168863D01*
X80141Y169537D02*
X78115Y169537D01*
X78115Y170211D02*
X80141Y170211D01*
X80141Y170885D02*
X78115Y170885D01*
X78115Y171559D02*
X80141Y171559D01*
X73115Y172171D02*
X73115Y164145D01*
X73115Y172171D02*
X75141Y172171D01*
X75141Y164145D01*
X73115Y164145D01*
X73115Y164819D02*
X75141Y164819D01*
X75141Y165493D02*
X73115Y165493D01*
X73115Y166167D02*
X75141Y166167D01*
X75141Y166841D02*
X73115Y166841D01*
X73115Y167515D02*
X75141Y167515D01*
X75141Y168189D02*
X73115Y168189D01*
X73115Y168863D02*
X75141Y168863D01*
X75141Y169537D02*
X73115Y169537D01*
X73115Y170211D02*
X75141Y170211D01*
X75141Y170885D02*
X73115Y170885D01*
X73115Y171559D02*
X75141Y171559D01*
X68115Y172171D02*
X68115Y164145D01*
X68115Y172171D02*
X70141Y172171D01*
X70141Y164145D01*
X68115Y164145D01*
X68115Y164819D02*
X70141Y164819D01*
X70141Y165493D02*
X68115Y165493D01*
X68115Y166167D02*
X70141Y166167D01*
X70141Y166841D02*
X68115Y166841D01*
X68115Y167515D02*
X70141Y167515D01*
X70141Y168189D02*
X68115Y168189D01*
X68115Y168863D02*
X70141Y168863D01*
X70141Y169537D02*
X68115Y169537D01*
X68115Y170211D02*
X70141Y170211D01*
X70141Y170885D02*
X68115Y170885D01*
X68115Y171559D02*
X70141Y171559D01*
X63115Y172171D02*
X63115Y164145D01*
X63115Y172171D02*
X65141Y172171D01*
X65141Y164145D01*
X63115Y164145D01*
X63115Y164819D02*
X65141Y164819D01*
X65141Y165493D02*
X63115Y165493D01*
X63115Y166167D02*
X65141Y166167D01*
X65141Y166841D02*
X63115Y166841D01*
X63115Y167515D02*
X65141Y167515D01*
X65141Y168189D02*
X63115Y168189D01*
X63115Y168863D02*
X65141Y168863D01*
X65141Y169537D02*
X63115Y169537D01*
X63115Y170211D02*
X65141Y170211D01*
X65141Y170885D02*
X63115Y170885D01*
X63115Y171559D02*
X65141Y171559D01*
X58115Y172171D02*
X58115Y164145D01*
X58115Y172171D02*
X60141Y172171D01*
X60141Y164145D01*
X58115Y164145D01*
X58115Y164819D02*
X60141Y164819D01*
X60141Y165493D02*
X58115Y165493D01*
X58115Y166167D02*
X60141Y166167D01*
X60141Y166841D02*
X58115Y166841D01*
X58115Y167515D02*
X60141Y167515D01*
X60141Y168189D02*
X58115Y168189D01*
X58115Y168863D02*
X60141Y168863D01*
X60141Y169537D02*
X58115Y169537D01*
X58115Y170211D02*
X60141Y170211D01*
X60141Y170885D02*
X58115Y170885D01*
X58115Y171559D02*
X60141Y171559D01*
X53115Y172171D02*
X53115Y164145D01*
X53115Y172171D02*
X55141Y172171D01*
X55141Y164145D01*
X53115Y164145D01*
X53115Y164819D02*
X55141Y164819D01*
X55141Y165493D02*
X53115Y165493D01*
X53115Y166167D02*
X55141Y166167D01*
X55141Y166841D02*
X53115Y166841D01*
X53115Y167515D02*
X55141Y167515D01*
X55141Y168189D02*
X53115Y168189D01*
X53115Y168863D02*
X55141Y168863D01*
X55141Y169537D02*
X53115Y169537D01*
X53115Y170211D02*
X55141Y170211D01*
X55141Y170885D02*
X53115Y170885D01*
X53115Y171559D02*
X55141Y171559D01*
X48115Y172171D02*
X48115Y164145D01*
X48115Y172171D02*
X50141Y172171D01*
X50141Y164145D01*
X48115Y164145D01*
X48115Y164819D02*
X50141Y164819D01*
X50141Y165493D02*
X48115Y165493D01*
X48115Y166167D02*
X50141Y166167D01*
X50141Y166841D02*
X48115Y166841D01*
X48115Y167515D02*
X50141Y167515D01*
X50141Y168189D02*
X48115Y168189D01*
X48115Y168863D02*
X50141Y168863D01*
X50141Y169537D02*
X48115Y169537D01*
X48115Y170211D02*
X50141Y170211D01*
X50141Y170885D02*
X48115Y170885D01*
X48115Y171559D02*
X50141Y171559D01*
X43115Y172171D02*
X43115Y164145D01*
X43115Y172171D02*
X45141Y172171D01*
X45141Y164145D01*
X43115Y164145D01*
X43115Y164819D02*
X45141Y164819D01*
X45141Y165493D02*
X43115Y165493D01*
X43115Y166167D02*
X45141Y166167D01*
X45141Y166841D02*
X43115Y166841D01*
X43115Y167515D02*
X45141Y167515D01*
X45141Y168189D02*
X43115Y168189D01*
X43115Y168863D02*
X45141Y168863D01*
X45141Y169537D02*
X43115Y169537D01*
X43115Y170211D02*
X45141Y170211D01*
X45141Y170885D02*
X43115Y170885D01*
X43115Y171559D02*
X45141Y171559D01*
X43115Y103571D02*
X43115Y95545D01*
X43115Y103571D02*
X45141Y103571D01*
X45141Y95545D01*
X43115Y95545D01*
X43115Y96219D02*
X45141Y96219D01*
X45141Y96893D02*
X43115Y96893D01*
X43115Y97567D02*
X45141Y97567D01*
X45141Y98241D02*
X43115Y98241D01*
X43115Y98915D02*
X45141Y98915D01*
X45141Y99589D02*
X43115Y99589D01*
X43115Y100263D02*
X45141Y100263D01*
X45141Y100937D02*
X43115Y100937D01*
X43115Y101611D02*
X45141Y101611D01*
X45141Y102285D02*
X43115Y102285D01*
X43115Y102959D02*
X45141Y102959D01*
X48115Y103571D02*
X48115Y95545D01*
X48115Y103571D02*
X50141Y103571D01*
X50141Y95545D01*
X48115Y95545D01*
X48115Y96219D02*
X50141Y96219D01*
X50141Y96893D02*
X48115Y96893D01*
X48115Y97567D02*
X50141Y97567D01*
X50141Y98241D02*
X48115Y98241D01*
X48115Y98915D02*
X50141Y98915D01*
X50141Y99589D02*
X48115Y99589D01*
X48115Y100263D02*
X50141Y100263D01*
X50141Y100937D02*
X48115Y100937D01*
X48115Y101611D02*
X50141Y101611D01*
X50141Y102285D02*
X48115Y102285D01*
X48115Y102959D02*
X50141Y102959D01*
X53115Y103571D02*
X53115Y95545D01*
X53115Y103571D02*
X55141Y103571D01*
X55141Y95545D01*
X53115Y95545D01*
X53115Y96219D02*
X55141Y96219D01*
X55141Y96893D02*
X53115Y96893D01*
X53115Y97567D02*
X55141Y97567D01*
X55141Y98241D02*
X53115Y98241D01*
X53115Y98915D02*
X55141Y98915D01*
X55141Y99589D02*
X53115Y99589D01*
X53115Y100263D02*
X55141Y100263D01*
X55141Y100937D02*
X53115Y100937D01*
X53115Y101611D02*
X55141Y101611D01*
X55141Y102285D02*
X53115Y102285D01*
X53115Y102959D02*
X55141Y102959D01*
X58115Y103571D02*
X58115Y95545D01*
X58115Y103571D02*
X60141Y103571D01*
X60141Y95545D01*
X58115Y95545D01*
X58115Y96219D02*
X60141Y96219D01*
X60141Y96893D02*
X58115Y96893D01*
X58115Y97567D02*
X60141Y97567D01*
X60141Y98241D02*
X58115Y98241D01*
X58115Y98915D02*
X60141Y98915D01*
X60141Y99589D02*
X58115Y99589D01*
X58115Y100263D02*
X60141Y100263D01*
X60141Y100937D02*
X58115Y100937D01*
X58115Y101611D02*
X60141Y101611D01*
X60141Y102285D02*
X58115Y102285D01*
X58115Y102959D02*
X60141Y102959D01*
X63115Y103571D02*
X63115Y95545D01*
X63115Y103571D02*
X65141Y103571D01*
X65141Y95545D01*
X63115Y95545D01*
X63115Y96219D02*
X65141Y96219D01*
X65141Y96893D02*
X63115Y96893D01*
X63115Y97567D02*
X65141Y97567D01*
X65141Y98241D02*
X63115Y98241D01*
X63115Y98915D02*
X65141Y98915D01*
X65141Y99589D02*
X63115Y99589D01*
X63115Y100263D02*
X65141Y100263D01*
X65141Y100937D02*
X63115Y100937D01*
X63115Y101611D02*
X65141Y101611D01*
X65141Y102285D02*
X63115Y102285D01*
X63115Y102959D02*
X65141Y102959D01*
X68115Y103571D02*
X68115Y95545D01*
X68115Y103571D02*
X70141Y103571D01*
X70141Y95545D01*
X68115Y95545D01*
X68115Y96219D02*
X70141Y96219D01*
X70141Y96893D02*
X68115Y96893D01*
X68115Y97567D02*
X70141Y97567D01*
X70141Y98241D02*
X68115Y98241D01*
X68115Y98915D02*
X70141Y98915D01*
X70141Y99589D02*
X68115Y99589D01*
X68115Y100263D02*
X70141Y100263D01*
X70141Y100937D02*
X68115Y100937D01*
X68115Y101611D02*
X70141Y101611D01*
X70141Y102285D02*
X68115Y102285D01*
X68115Y102959D02*
X70141Y102959D01*
X73115Y103571D02*
X73115Y95545D01*
X73115Y103571D02*
X75141Y103571D01*
X75141Y95545D01*
X73115Y95545D01*
X73115Y96219D02*
X75141Y96219D01*
X75141Y96893D02*
X73115Y96893D01*
X73115Y97567D02*
X75141Y97567D01*
X75141Y98241D02*
X73115Y98241D01*
X73115Y98915D02*
X75141Y98915D01*
X75141Y99589D02*
X73115Y99589D01*
X73115Y100263D02*
X75141Y100263D01*
X75141Y100937D02*
X73115Y100937D01*
X73115Y101611D02*
X75141Y101611D01*
X75141Y102285D02*
X73115Y102285D01*
X73115Y102959D02*
X75141Y102959D01*
X78115Y103571D02*
X78115Y95545D01*
X78115Y103571D02*
X80141Y103571D01*
X80141Y95545D01*
X78115Y95545D01*
X78115Y96219D02*
X80141Y96219D01*
X80141Y96893D02*
X78115Y96893D01*
X78115Y97567D02*
X80141Y97567D01*
X80141Y98241D02*
X78115Y98241D01*
X78115Y98915D02*
X80141Y98915D01*
X80141Y99589D02*
X78115Y99589D01*
X78115Y100263D02*
X80141Y100263D01*
X80141Y100937D02*
X78115Y100937D01*
X78115Y101611D02*
X80141Y101611D01*
X80141Y102285D02*
X78115Y102285D01*
X78115Y102959D02*
X80141Y102959D01*
X83115Y103571D02*
X83115Y95545D01*
X83115Y103571D02*
X85141Y103571D01*
X85141Y95545D01*
X83115Y95545D01*
X83115Y96219D02*
X85141Y96219D01*
X85141Y96893D02*
X83115Y96893D01*
X83115Y97567D02*
X85141Y97567D01*
X85141Y98241D02*
X83115Y98241D01*
X83115Y98915D02*
X85141Y98915D01*
X85141Y99589D02*
X83115Y99589D01*
X83115Y100263D02*
X85141Y100263D01*
X85141Y100937D02*
X83115Y100937D01*
X83115Y101611D02*
X85141Y101611D01*
X85141Y102285D02*
X83115Y102285D01*
X83115Y102959D02*
X85141Y102959D01*
X88115Y103571D02*
X88115Y95545D01*
X88115Y103571D02*
X90141Y103571D01*
X90141Y95545D01*
X88115Y95545D01*
X88115Y96219D02*
X90141Y96219D01*
X90141Y96893D02*
X88115Y96893D01*
X88115Y97567D02*
X90141Y97567D01*
X90141Y98241D02*
X88115Y98241D01*
X88115Y98915D02*
X90141Y98915D01*
X90141Y99589D02*
X88115Y99589D01*
X88115Y100263D02*
X90141Y100263D01*
X90141Y100937D02*
X88115Y100937D01*
X88115Y101611D02*
X90141Y101611D01*
X90141Y102285D02*
X88115Y102285D01*
X88115Y102959D02*
X90141Y102959D01*
X93115Y103571D02*
X93115Y95545D01*
X93115Y103571D02*
X95141Y103571D01*
X95141Y95545D01*
X93115Y95545D01*
X93115Y96219D02*
X95141Y96219D01*
X95141Y96893D02*
X93115Y96893D01*
X93115Y97567D02*
X95141Y97567D01*
X95141Y98241D02*
X93115Y98241D01*
X93115Y98915D02*
X95141Y98915D01*
X95141Y99589D02*
X93115Y99589D01*
X93115Y100263D02*
X95141Y100263D01*
X95141Y100937D02*
X93115Y100937D01*
X93115Y101611D02*
X95141Y101611D01*
X95141Y102285D02*
X93115Y102285D01*
X93115Y102959D02*
X95141Y102959D01*
X98115Y103571D02*
X98115Y95545D01*
X98115Y103571D02*
X100141Y103571D01*
X100141Y95545D01*
X98115Y95545D01*
X98115Y96219D02*
X100141Y96219D01*
X100141Y96893D02*
X98115Y96893D01*
X98115Y97567D02*
X100141Y97567D01*
X100141Y98241D02*
X98115Y98241D01*
X98115Y98915D02*
X100141Y98915D01*
X100141Y99589D02*
X98115Y99589D01*
X98115Y100263D02*
X100141Y100263D01*
X100141Y100937D02*
X98115Y100937D01*
X98115Y101611D02*
X100141Y101611D01*
X100141Y102285D02*
X98115Y102285D01*
X98115Y102959D02*
X100141Y102959D01*
D13*
X119602Y94710D02*
X126270Y94710D01*
X119602Y94710D02*
X119602Y101378D01*
X126270Y101378D01*
X126270Y94710D01*
X126270Y96932D02*
X119602Y96932D01*
X119602Y99154D02*
X126270Y99154D01*
X126270Y101376D02*
X119602Y101376D01*
X134842Y94710D02*
X141510Y94710D01*
X134842Y94710D02*
X134842Y101378D01*
X141510Y101378D01*
X141510Y94710D01*
X141510Y96932D02*
X134842Y96932D01*
X134842Y99154D02*
X141510Y99154D01*
X141510Y101376D02*
X134842Y101376D01*
D33*
X-70682Y108250D03*
X-70682Y101750D03*
X-70682Y95250D03*
X-70682Y88750D03*
X-70682Y82250D03*
D34*
X-71532Y70375D03*
X-71532Y120125D03*
D35*
X-97282Y106750D03*
D36*
X-97282Y79750D03*
D37*
X-97282Y129000D03*
X-97282Y61500D03*
D38*
X-47006Y122936D03*
X-41386Y122936D03*
D13*
X-55658Y146526D02*
X-55658Y153194D01*
X-48990Y153194D01*
X-48990Y146526D01*
X-55658Y146526D01*
X-55658Y148748D02*
X-48990Y148748D01*
X-48990Y150970D02*
X-55658Y150970D01*
X-55658Y153192D02*
X-48990Y153192D01*
X-55658Y137954D02*
X-55658Y131286D01*
X-55658Y137954D02*
X-48990Y137954D01*
X-48990Y131286D01*
X-55658Y131286D01*
X-55658Y133508D02*
X-48990Y133508D01*
X-48990Y135730D02*
X-55658Y135730D01*
X-55658Y137952D02*
X-48990Y137952D01*
X-39402Y146780D02*
X-39402Y153448D01*
X-32734Y153448D01*
X-32734Y146780D01*
X-39402Y146780D01*
X-39402Y149002D02*
X-32734Y149002D01*
X-32734Y151224D02*
X-39402Y151224D01*
X-39402Y153446D02*
X-32734Y153446D01*
X-39402Y138208D02*
X-39402Y131540D01*
X-39402Y138208D02*
X-32734Y138208D01*
X-32734Y131540D01*
X-39402Y131540D01*
X-39402Y133762D02*
X-32734Y133762D01*
X-32734Y135984D02*
X-39402Y135984D01*
X-39402Y138206D02*
X-32734Y138206D01*
X21622Y191484D02*
X21622Y198152D01*
X21622Y191484D02*
X14954Y191484D01*
X14954Y198152D01*
X21622Y198152D01*
X21622Y193706D02*
X14954Y193706D01*
X14954Y195928D02*
X21622Y195928D01*
X21622Y198150D02*
X14954Y198150D01*
X21622Y206724D02*
X21622Y213392D01*
X21622Y206724D02*
X14954Y206724D01*
X14954Y213392D01*
X21622Y213392D01*
X21622Y208946D02*
X14954Y208946D01*
X14954Y211168D02*
X21622Y211168D01*
X21622Y213390D02*
X14954Y213390D01*
X140938Y189516D02*
X147606Y189516D01*
X147606Y182848D01*
X140938Y182848D01*
X140938Y189516D01*
X140938Y185070D02*
X147606Y185070D01*
X147606Y187292D02*
X140938Y187292D01*
X140938Y189514D02*
X147606Y189514D01*
X132366Y189516D02*
X125698Y189516D01*
X132366Y189516D02*
X132366Y182848D01*
X125698Y182848D01*
X125698Y189516D01*
X125698Y185070D02*
X132366Y185070D01*
X132366Y187292D02*
X125698Y187292D01*
X125698Y189514D02*
X132366Y189514D01*
X15272Y158147D02*
X8604Y158147D01*
X15272Y158147D02*
X15272Y151479D01*
X8604Y151479D01*
X8604Y158147D01*
X8604Y153701D02*
X15272Y153701D01*
X15272Y155923D02*
X8604Y155923D01*
X8604Y158145D02*
X15272Y158145D01*
X32Y158147D02*
X-6636Y158147D01*
X32Y158147D02*
X32Y151479D01*
X-6636Y151479D01*
X-6636Y158147D01*
X-6636Y153701D02*
X32Y153701D01*
X32Y155923D02*
X-6636Y155923D01*
X-6636Y158145D02*
X32Y158145D01*
X-2254Y106902D02*
X-8922Y106902D01*
X-8922Y113570D01*
X-2254Y113570D01*
X-2254Y106902D01*
X-2254Y109124D02*
X-8922Y109124D01*
X-8922Y111346D02*
X-2254Y111346D01*
X-2254Y113568D02*
X-8922Y113568D01*
X6318Y106902D02*
X12986Y106902D01*
X6318Y106902D02*
X6318Y113570D01*
X12986Y113570D01*
X12986Y106902D01*
X12986Y109124D02*
X6318Y109124D01*
X6318Y111346D02*
X12986Y111346D01*
X12986Y113568D02*
X6318Y113568D01*
X110395Y64675D02*
X110395Y58007D01*
X103727Y58007D01*
X103727Y64675D01*
X110395Y64675D01*
X110395Y60229D02*
X103727Y60229D01*
X103727Y62451D02*
X110395Y62451D01*
X110395Y64673D02*
X103727Y64673D01*
X110395Y73247D02*
X110395Y79915D01*
X110395Y73247D02*
X103727Y73247D01*
X103727Y79915D01*
X110395Y79915D01*
X110395Y75469D02*
X103727Y75469D01*
X103727Y77691D02*
X110395Y77691D01*
X110395Y79913D02*
X103727Y79913D01*
X141446Y174784D02*
X148114Y174784D01*
X148114Y168116D01*
X141446Y168116D01*
X141446Y174784D01*
X141446Y170338D02*
X148114Y170338D01*
X148114Y172560D02*
X141446Y172560D01*
X141446Y174782D02*
X148114Y174782D01*
X132874Y174784D02*
X126206Y174784D01*
X132874Y174784D02*
X132874Y168116D01*
X126206Y168116D01*
X126206Y174784D01*
X126206Y170338D02*
X132874Y170338D01*
X132874Y172560D02*
X126206Y172560D01*
X126206Y174782D02*
X132874Y174782D01*
X-2254Y120618D02*
X-8922Y120618D01*
X-8922Y127286D01*
X-2254Y127286D01*
X-2254Y120618D01*
X-2254Y122840D02*
X-8922Y122840D01*
X-8922Y125062D02*
X-2254Y125062D01*
X-2254Y127284D02*
X-8922Y127284D01*
X6318Y120618D02*
X12986Y120618D01*
X6318Y120618D02*
X6318Y127286D01*
X12986Y127286D01*
X12986Y120618D01*
X12986Y122840D02*
X6318Y122840D01*
X6318Y125062D02*
X12986Y125062D01*
X12986Y127284D02*
X6318Y127284D01*
D39*
X183442Y100218D03*
X178442Y100218D03*
X173442Y100218D03*
X168442Y100218D03*
X163442Y100218D03*
X158442Y100218D03*
D40*
X151242Y93018D03*
X151242Y88018D03*
X151242Y83018D03*
X151242Y78018D03*
X151242Y73018D03*
X151242Y68018D03*
D39*
X158442Y60818D03*
X163442Y60818D03*
X168442Y60818D03*
X173442Y60818D03*
X178442Y60818D03*
X183442Y60818D03*
D40*
X190642Y68018D03*
X190642Y73018D03*
X190642Y78018D03*
X190642Y83018D03*
X190642Y88018D03*
X190642Y93018D03*
D13*
X222536Y89948D02*
X222536Y83280D01*
X215868Y83280D01*
X215868Y89948D01*
X222536Y89948D01*
X222536Y85502D02*
X215868Y85502D01*
X215868Y87724D02*
X222536Y87724D01*
X222536Y89946D02*
X215868Y89946D01*
X222536Y98520D02*
X222536Y105188D01*
X222536Y98520D02*
X215868Y98520D01*
X215868Y105188D01*
X222536Y105188D01*
X222536Y100742D02*
X215868Y100742D01*
X215868Y102964D02*
X222536Y102964D01*
X222536Y105186D02*
X215868Y105186D01*
X208566Y89694D02*
X208566Y83026D01*
X201898Y83026D01*
X201898Y89694D01*
X208566Y89694D01*
X208566Y85248D02*
X201898Y85248D01*
X201898Y87470D02*
X208566Y87470D01*
X208566Y89692D02*
X201898Y89692D01*
X208566Y98266D02*
X208566Y104934D01*
X208566Y98266D02*
X201898Y98266D01*
X201898Y104934D01*
X208566Y104934D01*
X208566Y100488D02*
X201898Y100488D01*
X201898Y102710D02*
X208566Y102710D01*
X208566Y104932D02*
X201898Y104932D01*
X126143Y64675D02*
X126143Y58007D01*
X119475Y58007D01*
X119475Y64675D01*
X126143Y64675D01*
X126143Y60229D02*
X119475Y60229D01*
X119475Y62451D02*
X126143Y62451D01*
X126143Y64673D02*
X119475Y64673D01*
X126143Y73247D02*
X126143Y79915D01*
X126143Y73247D02*
X119475Y73247D01*
X119475Y79915D01*
X126143Y79915D01*
X126143Y75469D02*
X119475Y75469D01*
X119475Y77691D02*
X126143Y77691D01*
X126143Y79913D02*
X119475Y79913D01*
X141637Y64294D02*
X141637Y57626D01*
X134969Y57626D01*
X134969Y64294D01*
X141637Y64294D01*
X141637Y59848D02*
X134969Y59848D01*
X134969Y62070D02*
X141637Y62070D01*
X141637Y64292D02*
X134969Y64292D01*
X141637Y72866D02*
X141637Y79534D01*
X141637Y72866D02*
X134969Y72866D01*
X134969Y79534D01*
X141637Y79534D01*
X141637Y75088D02*
X134969Y75088D01*
X134969Y77310D02*
X141637Y77310D01*
X141637Y79532D02*
X134969Y79532D01*
X216630Y75470D02*
X223298Y75470D01*
X223298Y68802D01*
X216630Y68802D01*
X216630Y75470D01*
X216630Y71024D02*
X223298Y71024D01*
X223298Y73246D02*
X216630Y73246D01*
X216630Y75468D02*
X223298Y75468D01*
X208058Y75470D02*
X201390Y75470D01*
X208058Y75470D02*
X208058Y68802D01*
X201390Y68802D01*
X201390Y75470D01*
X201390Y71024D02*
X208058Y71024D01*
X208058Y73246D02*
X201390Y73246D01*
X201390Y75468D02*
X208058Y75468D01*
D41*
X116664Y245482D03*
X94664Y245482D03*
X94664Y228482D03*
X116664Y228482D03*
D42*
X113602Y216955D03*
X113602Y205955D03*
D13*
X140748Y204756D02*
X147416Y204756D01*
X147416Y198088D01*
X140748Y198088D01*
X140748Y204756D01*
X140748Y200310D02*
X147416Y200310D01*
X147416Y202532D02*
X140748Y202532D01*
X140748Y204754D02*
X147416Y204754D01*
X132176Y204756D02*
X125508Y204756D01*
X132176Y204756D02*
X132176Y198088D01*
X125508Y198088D01*
X125508Y204756D01*
X125508Y200310D02*
X132176Y200310D01*
X132176Y202532D02*
X125508Y202532D01*
X125508Y204754D02*
X132176Y204754D01*
X128746Y230346D02*
X128746Y237014D01*
X135414Y237014D01*
X135414Y230346D01*
X128746Y230346D01*
X128746Y232568D02*
X135414Y232568D01*
X135414Y234790D02*
X128746Y234790D01*
X128746Y237012D02*
X135414Y237012D01*
X128746Y221774D02*
X128746Y215106D01*
X128746Y221774D02*
X135414Y221774D01*
X135414Y215106D01*
X128746Y215106D01*
X128746Y217328D02*
X135414Y217328D01*
X135414Y219550D02*
X128746Y219550D01*
X128746Y221772D02*
X135414Y221772D01*
X80740Y215170D02*
X80740Y208502D01*
X80740Y215170D02*
X87408Y215170D01*
X87408Y208502D01*
X80740Y208502D01*
X80740Y210724D02*
X87408Y210724D01*
X87408Y212946D02*
X80740Y212946D01*
X80740Y215168D02*
X87408Y215168D01*
X80740Y199930D02*
X80740Y193262D01*
X80740Y199930D02*
X87408Y199930D01*
X87408Y193262D01*
X80740Y193262D01*
X80740Y195484D02*
X87408Y195484D01*
X87408Y197706D02*
X80740Y197706D01*
X80740Y199928D02*
X87408Y199928D01*
X74835Y238728D02*
X74835Y245396D01*
X81503Y245396D01*
X81503Y238728D01*
X74835Y238728D01*
X74835Y240950D02*
X81503Y240950D01*
X81503Y243172D02*
X74835Y243172D01*
X74835Y245394D02*
X81503Y245394D01*
X74835Y230156D02*
X74835Y223488D01*
X74835Y230156D02*
X81503Y230156D01*
X81503Y223488D01*
X74835Y223488D01*
X74835Y225710D02*
X81503Y225710D01*
X81503Y227932D02*
X74835Y227932D01*
X74835Y230154D02*
X81503Y230154D01*
X72422Y200946D02*
X72422Y194278D01*
X65754Y194278D01*
X65754Y200946D01*
X72422Y200946D01*
X72422Y196500D02*
X65754Y196500D01*
X65754Y198722D02*
X72422Y198722D01*
X72422Y200944D02*
X65754Y200944D01*
X72422Y209518D02*
X72422Y216186D01*
X72422Y209518D02*
X65754Y209518D01*
X65754Y216186D01*
X72422Y216186D01*
X72422Y211740D02*
X65754Y211740D01*
X65754Y213962D02*
X72422Y213962D01*
X72422Y216184D02*
X65754Y216184D01*
D43*
X55880Y198390D03*
X55880Y192770D03*
D13*
X28924Y206724D02*
X28924Y213392D01*
X35592Y213392D01*
X35592Y206724D01*
X28924Y206724D01*
X28924Y208946D02*
X35592Y208946D01*
X35592Y211168D02*
X28924Y211168D01*
X28924Y213390D02*
X35592Y213390D01*
X28924Y198152D02*
X28924Y191484D01*
X28924Y198152D02*
X35592Y198152D01*
X35592Y191484D01*
X28924Y191484D01*
X28924Y193706D02*
X35592Y193706D01*
X35592Y195928D02*
X28924Y195928D01*
X28924Y198150D02*
X35592Y198150D01*
X42894Y206470D02*
X42894Y213138D01*
X49562Y213138D01*
X49562Y206470D01*
X42894Y206470D01*
X42894Y208692D02*
X49562Y208692D01*
X49562Y210914D02*
X42894Y210914D01*
X42894Y213136D02*
X49562Y213136D01*
X42894Y197898D02*
X42894Y191230D01*
X42894Y197898D02*
X49562Y197898D01*
X49562Y191230D01*
X42894Y191230D01*
X42894Y193452D02*
X49562Y193452D01*
X49562Y195674D02*
X42894Y195674D01*
X42894Y197896D02*
X49562Y197896D01*
D44*
X-21946Y133510D03*
X-2946Y133510D03*
X-12446Y153510D03*
D13*
X185134Y181896D02*
X191802Y181896D01*
X191802Y175228D01*
X185134Y175228D01*
X185134Y181896D01*
X185134Y177450D02*
X191802Y177450D01*
X191802Y179672D02*
X185134Y179672D01*
X185134Y181894D02*
X191802Y181894D01*
X176562Y181896D02*
X169894Y181896D01*
X176562Y181896D02*
X176562Y175228D01*
X169894Y175228D01*
X169894Y181896D01*
X169894Y177450D02*
X176562Y177450D01*
X176562Y179672D02*
X169894Y179672D01*
X169894Y181894D02*
X176562Y181894D01*
X170910Y167164D02*
X170910Y160496D01*
X170910Y167164D02*
X177578Y167164D01*
X177578Y160496D01*
X170910Y160496D01*
X170910Y162718D02*
X177578Y162718D01*
X177578Y164940D02*
X170910Y164940D01*
X170910Y167162D02*
X177578Y167162D01*
X170910Y151924D02*
X170910Y145256D01*
X170910Y151924D02*
X177578Y151924D01*
X177578Y145256D01*
X170910Y145256D01*
X170910Y147478D02*
X177578Y147478D01*
X177578Y149700D02*
X170910Y149700D01*
X170910Y151922D02*
X177578Y151922D01*
D45*
X53340Y270686D03*
X53340Y229186D03*
D46*
X181278Y115570D03*
X139778Y115570D03*
D45*
X21844Y271448D03*
X21844Y229948D03*
D47*
X28194Y12790D03*
X28194Y30390D03*
D13*
X291052Y73692D02*
X297720Y73692D01*
X297720Y67024D01*
X291052Y67024D01*
X291052Y73692D01*
X291052Y69246D02*
X297720Y69246D01*
X297720Y71468D02*
X291052Y71468D01*
X291052Y73690D02*
X297720Y73690D01*
X282480Y73692D02*
X275812Y73692D01*
X282480Y73692D02*
X282480Y67024D01*
X275812Y67024D01*
X275812Y73692D01*
X275812Y69246D02*
X282480Y69246D01*
X282480Y71468D02*
X275812Y71468D01*
X275812Y73690D02*
X282480Y73690D01*
X306800Y66516D02*
X313468Y66516D01*
X306800Y66516D02*
X306800Y73184D01*
X313468Y73184D01*
X313468Y66516D01*
X313468Y68738D02*
X306800Y68738D01*
X306800Y70960D02*
X313468Y70960D01*
X313468Y73182D02*
X306800Y73182D01*
X322040Y66516D02*
X328708Y66516D01*
X322040Y66516D02*
X322040Y73184D01*
X328708Y73184D01*
X328708Y66516D01*
X328708Y68738D02*
X322040Y68738D01*
X322040Y70960D02*
X328708Y70960D01*
X328708Y73182D02*
X322040Y73182D01*
M02*
